<?xml version="1.0" encoding="UTF-8"?><svg id="Capa_2" xmlns="http://www.w3.org/2000/svg" viewBox="0 0 27.15 3.7"><defs><style>.cls-1{fill:#f7f8f6;}.cls-1,.cls-2{stroke-width:0px;}.cls-2{fill:#54514d;}.cls-3{fill:none;stroke:#f7f8f6;stroke-linecap:round;stroke-linejoin:round;stroke-width:.4px;}</style></defs><g id="Capa_15"><rect class="cls-2" width="27.15" height="3.7"/><path class="cls-1" d="m1.82,2.7c-.15,0-.3-.03-.43-.11l-.02-.24c.11.05.25.07.37.07.19,0,.28-.08.28-.2,0-.29-.66-.21-.66-.78,0-.33.22-.5.54-.5.14,0,.29.04.39.1l.02.24c-.09-.04-.22-.06-.33-.06-.17,0-.25.07-.25.19,0,.29.66.21.66.78,0,.35-.23.51-.56.51Z"/><path class="cls-1" d="m2.65,2.67V.98h.96l.02.27h-.62v.42h.56v.26h-.56v.48h.67l-.02.27h-1.01Z"/><path class="cls-1" d="m4.62,2.7c-.58,0-.78-.31-.78-.87s.26-.88.77-.88c.18,0,.35.04.46.12l.03.24c-.11-.05-.24-.08-.37-.08-.35,0-.5.21-.5.62s.11.59.38.59c.06,0,.12,0,.17-.02v-.38l-.21-.03v-.2h.57v.81c-.15.05-.34.08-.52.08Z"/><path class="cls-1" d="m5.43,2.19V.98h.37v1.11c0,.2.04.35.28.35.21,0,.28-.14.28-.35V.98h.32v1.21c0,.3-.19.52-.62.52-.49,0-.62-.25-.62-.52Z"/><path class="cls-1" d="m7.02,2.67V.98h.37v1.69h-.37Z"/><path class="cls-1" d="m8.66,2.67l-.15-.41c-.08-.22-.15-.27-.26-.27h-.13v.68h-.37V.98h.64c.32,0,.53.14.53.47,0,.23-.12.36-.31.42h0c.12.07.18.16.26.34l.17.46h-.4Zm-.38-1.46h-.16v.53h.17c.16,0,.26-.08.26-.27,0-.17-.08-.26-.26-.26Z"/><path class="cls-1" d="m10.85,2.67l-.11-.41h-.52l-.12.41h-.34l.5-1.69h.48l.49,1.69h-.39Zm-.26-.97c-.04-.15-.08-.29-.11-.45h0c-.03.15-.07.29-.12.45l-.08.29h.39l-.08-.29Z"/><path class="cls-1" d="m11.64,2.67l-.46-1.69h.39l.23.91c.04.16.08.31.11.47h0c.03-.16.07-.31.11-.47l.23-.91h.34l-.47,1.69h-.47Z"/><path class="cls-1" d="m13.61,2.67l-.11-.41h-.52l-.12.41h-.34l.5-1.69h.48l.49,1.69h-.39Zm-.26-.97c-.04-.15-.08-.29-.11-.45h0c-.03.15-.07.29-.12.45l-.08.29h.39l-.08-.29Z"/><path class="cls-1" d="m15.11,2.67l-.44-.81c-.04-.08-.11-.21-.13-.27h0v1.08h-.32V.98h.38l.42.79c.04.08.12.23.15.31h0V.98h.32v1.69h-.38Z"/><path class="cls-1" d="m15.77,2.67v-.25l.72-1.16h-.66l.02-.27h1.08v.27l-.72,1.15h.75l-.03.27h-1.16Z"/><path class="cls-1" d="m18.16,2.67l-.11-.41h-.52l-.12.41h-.34l.5-1.69h.48l.49,1.69h-.39Zm-.26-.97c-.04-.15-.08-.29-.11-.45h0c-.03.15-.07.29-.12.45l-.08.29h.39l-.08-.29Z"/><path class="cls-1" d="m19.67,2.67l-.44-.81c-.04-.08-.11-.21-.13-.27h0v1.08h-.32V.98h.38l.42.79c.04.08.12.23.15.31h0V.98h.32v1.69h-.38Z"/><path class="cls-1" d="m21.01,2.67h-.59V.98h.59c.54,0,.76.28.76.83s-.23.86-.76.86Zm-.06-1.44h-.17v1.19h.17c.27,0,.42-.16.42-.61s-.14-.59-.42-.59Z"/><path class="cls-1" d="m22.66,2.7c-.47,0-.7-.27-.7-.85s.24-.9.72-.9.7.26.7.84-.24.91-.72.91Zm.02-1.49c-.23,0-.33.19-.33.63s.09.59.32.59.33-.19.33-.64-.09-.58-.31-.58Z"/><line class="cls-3" x1="25.07" y1="2.87" x2="25.21" y2=".88"/><polyline class="cls-3" points="25.9 1.72 25.23 .66 24.41 1.61"/></g></svg>