<?xml version="1.0" encoding="utf-8"?>
<!-- Generator: Adobe Illustrator 28.0.0, SVG Export Plug-In . SVG Version: 6.00 Build 0)  -->
<svg version="1.1" xmlns="http://www.w3.org/2000/svg" xmlns:xlink="http://www.w3.org/1999/xlink" x="0px" y="0px"
	 viewBox="0 0 199.76 300.45" style="enable-background:new 0 0 199.76 300.45;" xml:space="preserve">
<style type="text/css">
	.st0{enable-background:new    ;}
	.st1{fill:#292621;}
	.st2{fill:#47423A;}
	.st3{fill:none;stroke:#292621;stroke-width:2;stroke-linecap:round;}
	.st4{fill:#FC6E53;stroke:#292621;}
	.st5{fill:#EDEEE6;stroke:#292621;}
</style>
<g id="Texto">
	<g id="Grupo_1162" transform="translate(-160.809 -198)">
		<g class="st0">
			<path class="st1" d="M202.84,211.73h-1.06v5.3h-2.44v-14.85h3.52c1.98,0,3.45,0.81,3.45,4.78
				C206.32,210.74,204.94,211.73,202.84,211.73z M202.36,203.92h-0.57v6.05h0.57c0.95,0,1.43-0.51,1.43-3.01
				C203.79,204.27,203.2,203.92,202.36,203.92z"/>
			<path class="st1" d="M213.6,217.03l-0.79-4.47c-0.26-1.45-0.7-1.76-1.43-1.76h-0.64v6.23h-2.44v-14.85h3.85
				c1.85,0,3.26,0.81,3.26,4.09c0,2.31-0.84,3.19-1.85,3.63v0.02c0.95,0.44,1.39,1.06,1.65,2.27l0.99,4.84H213.6z M211.45,203.92
				h-0.7v5.06h0.73c0.95,0,1.39-0.62,1.39-2.53C212.86,204.49,212.39,203.92,211.45,203.92z"/>
			<path class="st1" d="M221.26,217.32c-2.84,0-4.16-1.67-4.16-7.5c0-6.03,1.39-7.92,4.29-7.92c2.84,0,4.18,1.65,4.18,7.5
				C225.57,215.43,224.16,217.32,221.26,217.32z M221.37,203.88c-1.19,0-1.67,1.14-1.67,5.88c0,4.62,0.42,5.59,1.58,5.59
				c1.19,0,1.67-1.14,1.67-5.9C222.95,204.84,222.53,203.88,221.37,203.88z M220.31,201.34c0.46-1.03,1.01-2.35,1.32-3.34h2.4
				c-0.48,1.12-1.32,2.51-1.83,3.34H220.31z"/>
			<path class="st1" d="M231.62,217.03l-1.58-5.92h-0.02l-1.43,5.92h-2.49l2.29-7.57l-2.16-7.28h2.68l1.41,5.5h0.02l1.25-5.5h2.44
				l-2.07,7.13l2.33,7.72H231.62z"/>
			<path class="st1" d="M236.09,217.03v-14.85h2.44v14.85H236.09z"/>
			<path class="st1" d="M248.63,217.03l-0.13-8.38c0-0.59,0-1.23,0.02-2.02h-0.04c-0.09,0.73-0.13,1.28-0.24,1.94l-1.25,6.54h-2.24
				l-1.3-6.51c-0.09-0.62-0.18-1.17-0.24-1.96h-0.04c0,0.81,0,1.47,0,2.02l-0.09,8.38h-2.11l0.29-14.85h3.26l1.23,6.89
				c0.09,0.75,0.2,1.65,0.24,2.51h0.07c0.04-0.86,0.18-1.76,0.24-2.51l1.19-6.89h3.3l0.29,14.85H248.63z"/>
			<path class="st1" d="M258.7,217.03l-0.7-3.92h-2.68l-0.68,3.92h-2.24l2.88-14.85h3.21l2.79,14.85H258.7z M257.14,207.66
				c-0.2-1.23-0.29-2.18-0.42-3.54h-0.04c-0.13,1.39-0.26,2.31-0.46,3.54l-0.59,3.5h2.11L257.14,207.66z"/>
			<path class="st1" d="M264.88,217.32c-0.88,0-1.74-0.2-2.49-0.66l-0.15-1.8c0.66,0.26,1.34,0.42,2.05,0.42
				c0.92,0,1.65-0.46,1.65-1.92c0-2.79-3.81-2.6-3.81-7.15c0-2.86,1.21-4.31,3.34-4.31c0.81,0,1.58,0.22,2.24,0.64l0.15,1.8
				c-0.53-0.24-1.12-0.4-1.76-0.4c-0.92,0-1.54,0.62-1.54,1.89c0,2.79,3.78,2.62,3.78,7.15C268.36,216,267.02,217.32,264.88,217.32z
				"/>
			<path class="st1" d="M277.67,211.73h-1.06v5.3h-2.44v-14.85h3.52c1.98,0,3.45,0.81,3.45,4.78
				C281.14,210.74,279.76,211.73,277.67,211.73z M277.18,203.92h-0.57v6.05h0.57c0.95,0,1.43-0.51,1.43-3.01
				C278.61,204.27,278.02,203.92,277.18,203.92z"/>
			<path class="st1" d="M287.26,217.03l-0.7-3.92h-2.68l-0.68,3.92h-2.24l2.88-14.85h3.21l2.79,14.85H287.26z M285.7,207.66
				c-0.2-1.23-0.29-2.18-0.42-3.54h-0.04c-0.13,1.39-0.26,2.31-0.46,3.54l-0.59,3.5h2.11L285.7,207.66z"/>
			<path class="st1" d="M296.67,217.03l-0.79-4.47c-0.26-1.45-0.7-1.76-1.43-1.76h-0.64v6.23h-2.44v-14.85h3.85
				c1.85,0,3.26,0.81,3.26,4.09c0,2.31-0.84,3.19-1.85,3.63v0.02c0.95,0.44,1.39,1.06,1.65,2.27l0.99,4.84H296.67z M294.52,203.92
				h-0.7v5.06h0.73c0.95,0,1.39-0.62,1.39-2.53C295.93,204.49,295.46,203.92,294.52,203.92z"/>
			<path class="st1" d="M306.4,217.03l-0.7-3.92h-2.68l-0.68,3.92h-2.24l2.88-14.85h3.21l2.79,14.85H306.4z M304.84,207.66
				c-0.2-1.23-0.29-2.18-0.42-3.54h-0.04c-0.13,1.39-0.26,2.31-0.46,3.54l-0.59,3.5h2.11L304.84,207.66z"/>
			<path class="st1" d="M313.99,217.03h-3.48v-14.85h3.48c3.19,0,4.71,1.63,4.71,7.31C318.7,215.14,317.05,217.03,313.99,217.03z
				 M313.99,204.03h-1.03v11.16h1.03c1.3,0,2.11-0.95,2.11-5.65C316.1,204.91,315.24,204.03,313.99,204.03z"/>
			<path class="st1" d="M325.67,217.03l-0.7-3.92h-2.68l-0.68,3.92h-2.24l2.88-14.85h3.21l2.79,14.85H325.67z M324.11,207.66
				c-0.2-1.23-0.29-2.18-0.42-3.54h-0.04c-0.13,1.39-0.26,2.31-0.46,3.54l-0.59,3.5h2.11L324.11,207.66z"/>
			<path class="st1" d="M331.85,217.32c-0.88,0-1.74-0.2-2.49-0.66l-0.15-1.8c0.66,0.26,1.34,0.42,2.05,0.42
				c0.92,0,1.65-0.46,1.65-1.92c0-2.79-3.81-2.6-3.81-7.15c0-2.86,1.21-4.31,3.34-4.31c0.81,0,1.58,0.22,2.24,0.64l0.15,1.8
				c-0.53-0.24-1.12-0.4-1.76-0.4c-0.92,0-1.54,0.62-1.54,1.89c0,2.79,3.78,2.62,3.78,7.15C335.33,216,333.99,217.32,331.85,217.32z
				"/>
		</g>
		<g id="Grupo_1159">
			<g class="st0">
				<path class="st1" d="M189.3,245.48h-1.71v4.56h-2.09v-12.15h3.82c2.11,0,3.85,0.95,3.85,3.8
					C193.17,244.33,191.59,245.48,189.3,245.48z M188.73,239.25h-1.13v4.86h1.1c1.4,0,2.29-0.68,2.29-2.43
					C190.98,239.79,189.99,239.25,188.73,239.25z"/>
				<path class="st1" d="M200.59,250.03l-0.95-3.28h-3.91l-0.95,3.28h-1.93l3.66-12.15h2.68l3.6,12.15H200.59z M198.55,242.78
					c-0.31-1.08-0.59-2.12-0.83-3.22h-0.04c-0.25,1.12-0.56,2.12-0.86,3.22l-0.7,2.47h3.13L198.55,242.78z"/>
				<path class="st1" d="M205.14,250.03v-10.62h-3.53l0.14-1.53h8.86l0.14,1.53h-3.53v10.62H205.14z"/>
				<path class="st1" d="M212.39,250.03v-12.15h2.09v12.15H212.39z"/>
				<path class="st1" d="M221.4,250.27c-3.21,0-4.84-1.95-4.84-6.12c0-4.32,1.71-6.5,4.99-6.5c3.22,0,4.86,1.87,4.86,6.07
					C226.4,248.02,224.69,250.27,221.4,250.27z M221.54,239.19c-1.87,0-2.74,1.55-2.74,4.9c0,3.28,0.81,4.63,2.63,4.63
					c1.85,0,2.72-1.58,2.72-4.97C224.15,240.51,223.34,239.19,221.54,239.19z"/>
				<path class="st1" d="M235.04,250.03v-10.62h-3.53l0.14-1.53h8.86l0.14,1.53h-3.53v10.62H235.04z"/>
				<path class="st1" d="M247.23,250.03l-0.95-3.28h-3.91l-0.95,3.28h-1.93l3.66-12.15h2.68l3.6,12.15H247.23z M245.19,242.78
					c-0.31-1.08-0.59-2.12-0.83-3.22h-0.04c-0.25,1.12-0.56,2.12-0.86,3.22l-0.7,2.47h3.13L245.19,242.78z"/>
				<path class="st1" d="M251.18,250.03v-12.15h2.09v10.62h4.68l-0.14,1.53H251.18z"/>
				<path class="st1" d="M259.73,250.03v-12.15h2.09v10.62h4.68l-0.14,1.53H259.73z"/>
				<path class="st1" d="M268.28,250.03v-12.15h6.52l0.13,1.53h-4.56v3.55h4.16v1.51h-4.16v4.03h4.93l-0.14,1.53H268.28z"/>
				<path class="st1" d="M283.95,250.03l-1.17-3.06c-0.68-1.62-1.17-2.05-2.07-2.05h-1.15v5.11h-2.09v-12.15h4.05
					c2.39,0,3.75,1.08,3.75,3.35c0,1.64-0.86,2.63-2.27,3.03v0.04c0.88,0.49,1.31,1.12,1.85,2.38l1.37,3.37H283.95z M280.92,239.25
					h-1.37v4.25h1.39c1.31,0,2.14-0.68,2.14-2.14C283.08,240.06,282.51,239.25,280.92,239.25z"/>
			</g>
			<g class="st0">
				<path class="st2" d="M188.67,266.03h-3.25v-10.8h3.11c1.65,0,3.17,0.61,3.17,2.69c0,1.36-0.86,2.18-1.9,2.42v0.02
					c1.34,0.11,2.43,0.93,2.43,2.62C192.22,264.94,191.01,266.03,188.67,266.03z M188.16,256.19h-1.33v3.75h1.52
					c1.01,0,1.89-0.58,1.89-1.89C190.24,256.64,189.4,256.19,188.16,256.19z M188.41,260.93h-1.58v4.15h1.5
					c1.57,0,2.37-0.59,2.37-2.18C190.7,261.5,189.77,260.93,188.41,260.93z"/>
				<path class="st2" d="M196.78,266.24c-2.08,0-3.31-1.18-3.31-4.1c0-3.03,1.28-4.39,3.39-4.39c2.06,0,3.31,1.15,3.31,4.07
					C200.17,264.83,198.89,266.24,196.78,266.24z M196.84,258.75c-1.28,0-2.02,1.06-2.02,3.35c0,2.22,0.69,3.15,1.97,3.15
					c1.28,0,2.02-1.09,2.02-3.38C198.81,259.66,198.12,258.75,196.84,258.75z"/>
				<path class="st2" d="M203.55,266.24c-0.69,0-1.5-0.11-2.14-0.43l-0.08-0.83c0.56,0.18,1.3,0.27,1.98,0.27
					c0.98,0,1.62-0.29,1.62-1.25c0-1.86-3.65-1.25-3.65-3.95c0-1.46,0.96-2.29,2.63-2.29c0.56,0,1.26,0.13,1.79,0.43l0.05,0.83
					c-0.5-0.18-1.12-0.27-1.71-0.27c-0.98,0-1.49,0.38-1.49,1.2c0,1.71,3.63,1.17,3.63,3.97
					C206.17,265.46,205.13,266.24,203.55,266.24z"/>
				<path class="st2" d="M211.93,266.03l-0.08-0.62h-0.05c-0.77,0.46-1.46,0.83-2.37,0.83c-1.23,0-2.11-0.86-2.11-2.32
					c0-1.65,0.86-2.53,2.79-2.53c0.58,0,1.17,0.1,1.7,0.26v-1.41c0-0.98-0.58-1.44-1.78-1.44c-0.75,0-1.46,0.21-2,0.43l0.1-0.86
					c0.54-0.35,1.39-0.61,2.35-0.61c1.54,0,2.61,0.61,2.61,2.24v6.03H211.93z M211.8,262.46c-0.43-0.13-0.88-0.19-1.39-0.19
					c-1.31,0-1.86,0.5-1.86,1.5c0,0.82,0.45,1.44,1.38,1.44c0.67,0,1.26-0.26,1.87-0.62V262.46z"/>
			</g>
			<g class="st0">
				<path class="st2" d="M191.15,314.03l-0.94-3.19h-3.62l-0.94,3.19h-1.33l3.31-10.8h1.74l3.25,10.8H191.15z M189.21,307.34
					c-0.29-0.96-0.56-1.92-0.78-2.91h-0.03c-0.24,1.01-0.53,1.95-0.82,2.91l-0.72,2.45h3.06L189.21,307.34z"/>
				<path class="st2" d="M194.8,314.03l-2.37-8.07h1.34l1.31,4.63c0.19,0.67,0.45,1.57,0.61,2.34h0.02
					c0.18-0.77,0.42-1.67,0.61-2.32l1.3-4.64h1.2l-2.37,8.07H194.8z"/>
				<path class="st2" d="M199.45,314.03v-1.42h1.22v1.42H199.45z"/>
				<path class="st2" d="M207.74,314.03l-3.12-10.8h1.49l1.79,6.5c0.27,0.99,0.56,1.97,0.78,2.98h0.02c0.24-1.02,0.53-1.99,0.8-2.98
					l1.79-6.5h1.33l-3.15,10.8H207.74z"/>
				<path class="st2" d="M214.11,303.37v-1.18h1.36v1.18H214.11z M215.29,314.03h-1.15v-8.07h1.28v8.07H215.29z"/>
				<path class="st2" d="M217.9,314.03v-11.7l1.28-0.14v11.84H217.9z"/>
				<path class="st2" d="M221.66,314.03v-11.7l1.28-0.14v11.84H221.66z"/>
				<path class="st2" d="M229.4,314.03l-0.08-0.62h-0.05c-0.77,0.46-1.46,0.83-2.37,0.83c-1.23,0-2.11-0.86-2.11-2.32
					c0-1.65,0.86-2.53,2.79-2.53c0.58,0,1.17,0.1,1.7,0.26v-1.41c0-0.98-0.58-1.44-1.78-1.44c-0.75,0-1.46,0.21-2,0.43l0.1-0.86
					c0.54-0.35,1.39-0.61,2.35-0.61c1.54,0,2.61,0.61,2.61,2.24v6.03H229.4z M229.28,310.46c-0.43-0.13-0.88-0.19-1.39-0.19
					c-1.31,0-1.86,0.5-1.86,1.5c0,0.82,0.45,1.44,1.38,1.44c0.67,0,1.26-0.26,1.87-0.62V310.46z"/>
				<path class="st2" d="M234.01,314.03l-2.37-8.07h1.34l1.31,4.63c0.19,0.67,0.45,1.57,0.61,2.34h0.02
					c0.18-0.77,0.42-1.67,0.61-2.32l1.3-4.64h1.2l-2.37,8.07H234.01z"/>
				<path class="st2" d="M239.4,303.37v-1.18h1.36v1.18H239.4z M240.59,314.03h-1.15v-8.07h1.28v8.07H240.59z"/>
				<path class="st2" d="M245.55,314.24c-2.1,0-3.11-1.55-3.11-4.23c0-2.58,0.93-4.26,3.23-4.26c0.64,0,1.31,0.16,1.89,0.5v2.13
					h-0.74l-0.16-1.46c-0.24-0.1-0.54-0.14-0.86-0.14c-1.54,0-2,1.31-2,3.19c0,2.13,0.72,3.2,2.26,3.2c0.67,0,1.23-0.19,1.71-0.42
					l-0.1,0.88C247.16,314,246.39,314.24,245.55,314.24z"/>
				<path class="st2" d="M252.06,314.24c-2.13,0-3.41-1.18-3.41-4.32c0-2.66,1.07-4.16,3.17-4.16c1.74,0,2.9,1.02,2.9,3.36
					c0,0.26-0.02,0.7-0.06,0.96h-4.64c0,0.9,0.11,1.94,0.69,2.53c0.37,0.35,0.9,0.58,1.71,0.58c0.78,0,1.46-0.18,2.06-0.43
					l-0.1,0.88C253.84,314,252.92,314.24,252.06,314.24z M251.85,306.64c-1.23,0-1.74,0.9-1.82,2.53h3.41
					C253.5,307.42,252.92,306.64,251.85,306.64z"/>
				<path class="st2" d="M261.2,314.03v-5.28c0-0.56-0.02-1.12-0.45-1.47c-0.27-0.24-0.66-0.37-1.14-0.37
					c-0.74,0-1.28,0.26-1.89,0.62v6.5h-1.28v-8.07h1.15l0.06,0.66h0.03c0.74-0.48,1.49-0.86,2.46-0.86c0.56,0,1.12,0.13,1.57,0.5
					c0.66,0.51,0.75,1.2,0.75,2.19v5.59H261.2z"/>
				<path class="st2" d="M267.18,314.24c-2.1,0-3.11-1.55-3.11-4.23c0-2.58,0.93-4.26,3.23-4.26c0.64,0,1.31,0.16,1.89,0.5v2.13
					h-0.74l-0.16-1.46c-0.24-0.1-0.54-0.14-0.86-0.14c-1.54,0-2,1.31-2,3.19c0,2.13,0.72,3.2,2.26,3.2c0.67,0,1.23-0.19,1.71-0.42
					l-0.1,0.88C268.79,314,268.03,314.24,267.18,314.24z"/>
				<path class="st2" d="M271,303.37v-1.18h1.36v1.18H271z M272.18,314.03h-1.15v-8.07h1.28v8.07H272.18z"/>
				<path class="st2" d="M277.35,314.24c-2.08,0-3.31-1.18-3.31-4.1c0-3.03,1.28-4.39,3.39-4.39c2.06,0,3.31,1.15,3.31,4.07
					C280.75,312.83,279.47,314.24,277.35,314.24z M277.42,306.75c-1.28,0-2.02,1.06-2.02,3.35c0,2.22,0.69,3.15,1.97,3.15
					c1.28,0,2.02-1.09,2.02-3.38C279.39,307.66,278.7,306.75,277.42,306.75z"/>
				<path class="st2" d="M284.31,314.03l4.96-10.8h0.94l-4.96,10.8H284.31z"/>
				<path class="st2" d="M298.25,314.24c-2.83,0-4.39-1.95-4.39-5.59c0-3.35,1.33-5.63,4.34-5.63c0.94,0,1.78,0.26,2.35,0.58v2.59
					h-0.85l-0.21-1.89c-0.37-0.14-0.77-0.21-1.18-0.21c-1.95,0-2.93,1.55-2.93,4.47c0,2.87,0.98,4.55,3.35,4.55
					c0.8,0,1.55-0.19,2.22-0.54l-0.14,0.98C300.19,313.95,299.29,314.24,298.25,314.24z"/>
				<path class="st2" d="M306.55,314.03l-0.08-0.62h-0.05c-0.77,0.46-1.46,0.83-2.37,0.83c-1.23,0-2.11-0.86-2.11-2.32
					c0-1.65,0.86-2.53,2.79-2.53c0.58,0,1.17,0.1,1.7,0.26v-1.41c0-0.98-0.58-1.44-1.78-1.44c-0.75,0-1.46,0.21-2,0.43l0.1-0.86
					c0.54-0.35,1.39-0.61,2.35-0.61c1.54,0,2.61,0.61,2.61,2.24v6.03H306.55z M306.43,310.46c-0.43-0.13-0.88-0.19-1.39-0.19
					c-1.31,0-1.86,0.5-1.86,1.5c0,0.82,0.45,1.44,1.38,1.44c0.67,0,1.26-0.26,1.87-0.62V310.46z"/>
				<path class="st2" d="M310.07,314.03v-8.07h1.15l0.06,0.66h0.03c0.74-0.48,1.38-0.86,2-0.86c0.18,0,0.35,0.03,0.54,0.11l0.06,1.2
					c-0.16-0.05-0.38-0.08-0.59-0.08c-0.7,0-1.26,0.27-1.98,0.66v6.39H310.07z"/>
				<path class="st2" d="M315.3,314.03v-8.07h1.15l0.06,0.66h0.03c0.74-0.48,1.38-0.86,2-0.86c0.18,0,0.35,0.03,0.54,0.11l0.06,1.2
					c-0.16-0.05-0.38-0.08-0.59-0.08c-0.7,0-1.26,0.27-1.98,0.66v6.39H315.3z"/>
				<path class="st2" d="M322.94,314.24c-2.13,0-3.41-1.18-3.41-4.32c0-2.66,1.07-4.16,3.17-4.16c1.74,0,2.9,1.02,2.9,3.36
					c0,0.26-0.02,0.7-0.06,0.96h-4.64c0,0.9,0.11,1.94,0.69,2.53c0.37,0.35,0.9,0.58,1.71,0.58c0.78,0,1.46-0.18,2.06-0.43
					l-0.1,0.88C324.71,314,323.8,314.24,322.94,314.24z M322.73,306.64c-1.23,0-1.74,0.9-1.82,2.53h3.41
					C324.38,307.42,323.8,306.64,322.73,306.64z"/>
				<path class="st2" d="M327.32,314.03v-8.07h1.15l0.06,0.66h0.03c0.74-0.48,1.38-0.86,2-0.86c0.18,0,0.35,0.03,0.54,0.11l0.06,1.2
					c-0.16-0.05-0.38-0.08-0.59-0.08c-0.7,0-1.26,0.27-1.98,0.66v6.39H327.32z"/>
				<path class="st2" d="M336.06,314.03l-0.08-0.62h-0.05c-0.77,0.46-1.46,0.83-2.37,0.83c-1.23,0-2.11-0.86-2.11-2.32
					c0-1.65,0.86-2.53,2.79-2.53c0.58,0,1.17,0.1,1.7,0.26v-1.41c0-0.98-0.58-1.44-1.78-1.44c-0.75,0-1.46,0.21-2,0.43l0.1-0.86
					c0.54-0.35,1.39-0.61,2.35-0.61c1.54,0,2.61,0.61,2.61,2.24v6.03H336.06z M335.93,310.46c-0.43-0.13-0.88-0.19-1.39-0.19
					c-1.31,0-1.86,0.5-1.86,1.5c0,0.82,0.45,1.44,1.38,1.44c0.67,0,1.26-0.26,1.87-0.62V310.46z"/>
				<path class="st2" d="M345.96,304.24c2.53,0,3.19,2.02,3.19,5.17c0,3.39-0.94,6.05-3.73,6.05c-0.83,0-1.58-0.26-2.14-0.61
					l-0.11-0.91c0.53,0.26,1.22,0.43,1.92,0.43c1.97,0,2.61-1.71,2.67-4.1h-0.02c-0.67,0.43-1.47,0.78-2.39,0.78
					c-1.54,0-2.56-1.1-2.56-3.25C342.79,305.36,344.09,304.24,345.96,304.24z M345.9,309.95c0.67,0,1.3-0.24,1.87-0.58
					c0.02-2.69-0.26-4.21-1.79-4.21c-1.18,0-1.81,0.86-1.81,2.48C344.17,309.13,344.74,309.95,345.9,309.95z"/>
				<path class="st2" d="M354.66,315.23v-2.46h-4.34v-0.85l4.35-7.49h1.3v7.36h1.36l-0.13,0.98h-1.23v2.46H354.66z M354.66,306.27
					h-0.05c-0.19,0.42-0.48,0.96-0.7,1.38l-2.38,4.15h3.14V306.27z"/>
			</g>
			<g class="st0">
				<path class="st2" d="M191.15,357.03l-0.94-3.19h-3.62l-0.94,3.19h-1.33l3.31-10.8h1.74l3.25,10.8H191.15z M189.21,350.34
					c-0.29-0.96-0.56-1.92-0.78-2.91h-0.03c-0.24,1.01-0.53,1.95-0.82,2.91l-0.72,2.45h3.06L189.21,350.34z"/>
				<path class="st2" d="M194.8,357.03l-2.37-8.07h1.34l1.31,4.63c0.19,0.67,0.45,1.57,0.61,2.34h0.02
					c0.18-0.77,0.42-1.67,0.61-2.32l1.3-4.64h1.2l-2.37,8.07H194.8z"/>
				<path class="st2" d="M199.45,357.03v-1.42h1.22v1.42H199.45z"/>
				<path class="st2" d="M208.65,352.86h-1.52v4.18h-1.41v-10.8h2.96c1.89,0,3.35,0.86,3.35,3.31
					C212.03,351.83,210.65,352.86,208.65,352.86z M208.33,347.19h-1.2v4.71h1.15c1.39,0,2.26-0.69,2.26-2.35
					C210.54,347.73,209.55,347.19,208.33,347.19z"/>
				<path class="st2" d="M213.79,357.03v-8.07h1.15l0.06,0.66h0.03c0.74-0.48,1.38-0.86,2-0.86c0.18,0,0.35,0.03,0.54,0.11l0.06,1.2
					c-0.16-0.05-0.38-0.08-0.59-0.08c-0.7,0-1.26,0.27-1.98,0.66v6.39H213.79z"/>
				<path class="st2" d="M218.99,346.37v-1.18h1.36v1.18H218.99z M220.17,357.03h-1.15v-8.07h1.28v8.07H220.17z"/>
				<path class="st2" d="M231.98,357.03v-5.28c0-0.56-0.02-1.1-0.43-1.47c-0.27-0.24-0.64-0.37-1.09-0.37c-0.67,0-1.25,0.27-1.9,0.7
					c0.08,0.3,0.11,0.64,0.11,1.06v5.36h-1.3v-5.28c0-0.56,0-1.1-0.42-1.47c-0.27-0.24-0.64-0.37-1.09-0.37
					c-0.7,0-1.22,0.27-1.81,0.62v6.5h-1.28v-8.07h1.15l0.06,0.66h0.03c0.72-0.46,1.44-0.86,2.39-0.86c0.54,0,1.09,0.14,1.52,0.5
					c0.19,0.14,0.34,0.32,0.45,0.5c1.01-0.64,1.73-0.99,2.62-0.99c0.54,0,1.09,0.14,1.52,0.5c0.66,0.51,0.74,1.2,0.74,2.19v5.59
					H231.98z"/>
				<path class="st2" d="M238.27,357.24c-2.13,0-3.41-1.18-3.41-4.32c0-2.66,1.07-4.16,3.17-4.16c1.74,0,2.9,1.02,2.9,3.36
					c0,0.26-0.02,0.7-0.06,0.96h-4.64c0,0.9,0.11,1.94,0.69,2.53c0.37,0.35,0.9,0.58,1.71,0.58c0.78,0,1.46-0.18,2.06-0.43
					l-0.1,0.88C240.04,357,239.13,357.24,238.27,357.24z M238.06,349.64c-1.23,0-1.74,0.9-1.82,2.53h3.41
					C239.71,350.42,239.13,349.64,238.06,349.64z"/>
				<path class="st2" d="M242.65,357.03v-8.07h1.15l0.06,0.66h0.03c0.74-0.48,1.38-0.86,2-0.86c0.18,0,0.35,0.03,0.54,0.11l0.06,1.2
					c-0.16-0.05-0.38-0.08-0.59-0.08c-0.7,0-1.26,0.27-1.98,0.66v6.39H242.65z"/>
				<path class="st2" d="M250.19,357.24c-2.08,0-3.31-1.18-3.31-4.1c0-3.03,1.28-4.39,3.39-4.39c2.06,0,3.31,1.15,3.31,4.07
					C253.58,355.83,252.3,357.24,250.19,357.24z M250.25,349.75c-1.28,0-2.02,1.06-2.02,3.35c0,2.22,0.69,3.15,1.97,3.15
					c1.28,0,2.02-1.09,2.02-3.38C252.22,350.66,251.53,349.75,250.25,349.75z"/>
				<path class="st2" d="M263.58,357.03l-0.06-0.66h-0.03c-0.72,0.46-1.44,0.86-2.3,0.86c-1.73,0-2.77-1.46-2.77-4.08
					c0-2.72,1.12-4.4,3.35-4.4c0.66,0,1.28,0.19,1.7,0.43v-3.86l1.28-0.14v11.84H263.58z M263.45,350.12
					c-0.42-0.21-0.88-0.34-1.38-0.34c-1.44,0-2.3,1.01-2.3,3.28c0,2.08,0.78,3.04,1.92,3.04c0.64,0,1.15-0.27,1.76-0.64V350.12z"/>
				<path class="st2" d="M269.85,357.24c-2.13,0-3.41-1.18-3.41-4.32c0-2.66,1.07-4.16,3.17-4.16c1.74,0,2.9,1.02,2.9,3.36
					c0,0.26-0.02,0.7-0.06,0.96h-4.64c0,0.9,0.11,1.94,0.69,2.53c0.37,0.35,0.9,0.58,1.71,0.58c0.78,0,1.46-0.18,2.06-0.43
					l-0.1,0.88C271.63,357,270.71,357.24,269.85,357.24z M269.64,349.64c-1.23,0-1.74,0.9-1.82,2.53h3.41
					C271.29,350.42,270.71,349.64,269.64,349.64z"/>
				<path class="st2" d="M285.9,357.03l-0.19-6.77c0-0.56-0.02-1.15,0-1.78h-0.03c-0.19,0.64-0.38,1.17-0.58,1.71l-1.81,5.09h-1.31
					l-1.84-5.09c-0.19-0.5-0.4-1.06-0.58-1.71h-0.03c0,0.64,0,1.22-0.02,1.78l-0.18,6.77h-1.22l0.3-10.8h1.73l1.97,5.52
					c0.21,0.62,0.42,1.26,0.58,1.91h0.03c0.18-0.64,0.35-1.28,0.56-1.91l1.94-5.52h1.74l0.32,10.8H285.9z"/>
				<path class="st2" d="M293.75,357.03l-0.08-0.62h-0.05c-0.77,0.46-1.46,0.83-2.37,0.83c-1.23,0-2.11-0.86-2.11-2.32
					c0-1.65,0.86-2.53,2.79-2.53c0.58,0,1.17,0.1,1.7,0.26v-1.41c0-0.98-0.58-1.44-1.78-1.44c-0.75,0-1.46,0.21-2,0.43l0.1-0.86
					c0.54-0.35,1.39-0.61,2.35-0.61c1.54,0,2.61,0.61,2.61,2.24v6.03H293.75z M293.63,353.46c-0.43-0.13-0.88-0.19-1.39-0.19
					c-1.31,0-1.86,0.5-1.86,1.5c0,0.82,0.45,1.44,1.38,1.44c0.67,0,1.26-0.26,1.87-0.62V353.46z"/>
				<path class="st2" d="M296.42,360.04l-0.11-0.91c0.24,0.06,0.56,0.11,0.86,0.11c0.91,0,1.34-0.5,1.62-1.5l0.18-0.7l-3.06-8.07
					h1.39l1.58,4.35c0.26,0.69,0.48,1.44,0.67,2.21h0.02c0.16-0.78,0.32-1.49,0.51-2.24l1.09-4.32h1.22l-2.34,8.77
					c-0.45,1.63-1.18,2.5-2.67,2.5C297.07,360.23,296.76,360.17,296.42,360.04z"/>
				<path class="st2" d="M306.3,357.24c-2.08,0-3.31-1.18-3.31-4.1c0-3.03,1.28-4.39,3.39-4.39c2.06,0,3.31,1.15,3.31,4.07
					C309.69,355.83,308.41,357.24,306.3,357.24z M306.36,349.75c-1.28,0-2.02,1.06-2.02,3.35c0,2.22,0.69,3.15,1.97,3.15
					c1.28,0,2.02-1.09,2.02-3.38C308.33,350.66,307.64,349.75,306.36,349.75z"/>
				<path class="st2" d="M313.26,357.03l4.96-10.8h0.94l-4.96,10.8H313.26z"/>
				<path class="st2" d="M329.37,357.03l-0.94-3.19h-3.62l-0.94,3.19h-1.33l3.31-10.8h1.74l3.25,10.8H329.37z M327.43,350.34
					c-0.29-0.96-0.56-1.92-0.78-2.91h-0.03c-0.24,1.01-0.53,1.95-0.82,2.91l-0.72,2.45h3.06L327.43,350.34z"/>
				<path class="st2" d="M333.02,357.03l-2.37-8.07h1.34l1.31,4.63c0.19,0.67,0.45,1.57,0.61,2.34h0.02
					c0.18-0.77,0.42-1.67,0.61-2.32l1.3-4.64h1.2l-2.37,8.07H333.02z"/>
				<path class="st2" d="M337.67,357.03v-1.42h1.22v1.42H337.67z"/>
				<path class="st2" d="M346.59,357.24c-2.54,0-3.19-2.03-3.19-5.17c0-3.41,0.94-6.05,3.73-6.05c0.82,0,1.58,0.26,2.13,0.59
					l0.13,0.91c-0.53-0.24-1.22-0.42-1.92-0.42c-1.98,0-2.61,1.71-2.69,4.08h0.02c0.69-0.42,1.49-0.77,2.39-0.77
					c1.54,0,2.58,1.1,2.58,3.25C349.75,356.1,348.46,357.24,346.59,357.24z M346.65,351.51c-0.69,0-1.3,0.26-1.87,0.59
					c-0.03,2.69,0.26,4.21,1.79,4.21c1.18,0,1.79-0.86,1.79-2.48C348.36,352.33,347.79,351.51,346.65,351.51z"/>
				<path class="st2" d="M351.08,354.46c0-1.6,0.77-2.37,2-3.03v-0.02c-0.94-0.54-1.78-1.25-1.78-2.75c0-1.7,1.02-2.64,2.98-2.64
					c1.65,0,2.82,0.78,2.82,2.5c0,1.47-0.77,2.11-1.82,2.74v0.03c1.34,0.66,2.02,1.39,2.02,2.95c0,2-1.17,3.01-3.15,3.01
					C352.34,357.24,351.08,356.41,351.08,354.46z M356.01,354.28c0-1.18-0.66-1.75-1.98-2.34c-1.09,0.54-1.78,1.12-1.78,2.46
					c0,1.28,0.74,1.9,1.87,1.9C355.35,356.31,356.01,355.62,356.01,354.28z M352.58,348.63c0,1.12,0.61,1.6,1.79,2.18
					c1.07-0.58,1.58-1.09,1.58-2.22c0-1.14-0.72-1.65-1.68-1.65C353.08,346.93,352.58,347.54,352.58,348.63z"/>
			</g>
			<g class="st0">
				<path class="st2" d="M191.15,402.03l-0.94-3.19h-3.62l-0.94,3.19h-1.33l3.31-10.8h1.74l3.25,10.8H191.15z M189.21,395.34
					c-0.29-0.96-0.56-1.92-0.78-2.91h-0.03c-0.24,1.01-0.53,1.95-0.82,2.91l-0.72,2.45h3.06L189.21,395.34z"/>
				<path class="st2" d="M194.8,402.03l-2.37-8.07h1.34l1.31,4.63c0.19,0.67,0.45,1.57,0.61,2.34h0.02
					c0.18-0.77,0.42-1.67,0.61-2.32l1.3-4.64h1.2l-2.37,8.07H194.8z"/>
				<path class="st2" d="M199.45,402.03v-1.42h1.22v1.42H199.45z"/>
				<path class="st2" d="M209.28,402.24c-2.83,0-4.39-1.95-4.39-5.59c0-3.35,1.33-5.63,4.34-5.63c0.94,0,1.78,0.26,2.35,0.58v2.59
					h-0.85l-0.21-1.89c-0.37-0.14-0.77-0.21-1.18-0.21c-1.95,0-2.93,1.55-2.93,4.47c0,2.87,0.98,4.55,3.35,4.55
					c0.8,0,1.55-0.19,2.22-0.54l-0.14,0.98C211.21,401.95,210.32,402.24,209.28,402.24z"/>
				<path class="st2" d="M217.58,402.03l-0.08-0.62h-0.05c-0.77,0.46-1.46,0.83-2.37,0.83c-1.23,0-2.11-0.86-2.11-2.32
					c0-1.65,0.86-2.53,2.79-2.53c0.58,0,1.17,0.1,1.7,0.26v-1.41c0-0.98-0.58-1.44-1.78-1.44c-0.75,0-1.46,0.21-2,0.43l0.1-0.86
					c0.54-0.35,1.39-0.61,2.35-0.61c1.54,0,2.61,0.61,2.61,2.24v6.03H217.58z M217.45,398.46c-0.43-0.13-0.88-0.19-1.39-0.19
					c-1.31,0-1.86,0.5-1.86,1.5c0,0.82,0.45,1.44,1.38,1.44c0.67,0,1.26-0.26,1.87-0.62V398.46z"/>
				<path class="st2" d="M221.1,402.03v-8.07h1.15l0.06,0.66h0.03c0.74-0.48,1.38-0.86,2-0.86c0.18,0,0.35,0.03,0.54,0.11l0.06,1.2
					c-0.16-0.05-0.38-0.08-0.59-0.08c-0.7,0-1.26,0.27-1.98,0.66v6.39H221.1z"/>
				<path class="st2" d="M229.84,402.03l-0.08-0.62h-0.05c-0.77,0.46-1.46,0.83-2.37,0.83c-1.23,0-2.11-0.86-2.11-2.32
					c0-1.65,0.86-2.53,2.79-2.53c0.58,0,1.17,0.1,1.7,0.26v-1.41c0-0.98-0.58-1.44-1.78-1.44c-0.75,0-1.46,0.21-2,0.43l0.1-0.86
					c0.54-0.35,1.39-0.61,2.35-0.61c1.54,0,2.61,0.61,2.61,2.24v6.03H229.84z M229.71,398.46c-0.43-0.13-0.88-0.19-1.39-0.19
					c-1.31,0-1.86,0.5-1.86,1.5c0,0.82,0.45,1.44,1.38,1.44c0.67,0,1.26-0.26,1.87-0.62V398.46z"/>
				<path class="st2" d="M235.71,402.24c-2.1,0-3.11-1.55-3.11-4.23c0-2.58,0.93-4.26,3.23-4.26c0.64,0,1.31,0.16,1.89,0.5v2.13
					h-0.74l-0.16-1.46c-0.24-0.1-0.54-0.14-0.86-0.14c-1.54,0-2,1.31-2,3.19c0,2.13,0.72,3.2,2.26,3.2c0.67,0,1.23-0.19,1.71-0.42
					l-0.1,0.88C237.32,402,236.56,402.24,235.71,402.24z"/>
				<path class="st2" d="M243.5,402.03l-0.08-0.62h-0.05c-0.77,0.46-1.46,0.83-2.37,0.83c-1.23,0-2.11-0.86-2.11-2.32
					c0-1.65,0.86-2.53,2.79-2.53c0.58,0,1.17,0.1,1.7,0.26v-1.41c0-0.98-0.58-1.44-1.78-1.44c-0.75,0-1.46,0.21-2,0.43l0.1-0.86
					c0.54-0.35,1.39-0.61,2.35-0.61c1.54,0,2.61,0.61,2.61,2.24v6.03H243.5z M243.37,398.46c-0.43-0.13-0.88-0.19-1.39-0.19
					c-1.31,0-1.86,0.5-1.86,1.5c0,0.82,0.45,1.44,1.38,1.44c0.67,0,1.26-0.26,1.87-0.62V398.46z"/>
				<path class="st2" d="M248.68,402.24c-0.69,0-1.5-0.11-2.14-0.43l-0.08-0.83c0.56,0.18,1.3,0.27,1.98,0.27
					c0.98,0,1.62-0.29,1.62-1.25c0-1.86-3.65-1.25-3.65-3.95c0-1.46,0.96-2.29,2.63-2.29c0.56,0,1.26,0.13,1.79,0.43l0.05,0.83
					c-0.5-0.18-1.12-0.27-1.71-0.27c-0.98,0-1.49,0.38-1.49,1.2c0,1.71,3.63,1.17,3.63,3.97
					C251.31,401.46,250.27,402.24,248.68,402.24z"/>
				<path class="st2" d="M254.94,402.03l4.96-10.8h0.94l-4.96,10.8H254.94z"/>
				<path class="st2" d="M268.88,402.24c-2.83,0-4.39-1.95-4.39-5.59c0-3.35,1.33-5.63,4.34-5.63c0.94,0,1.78,0.26,2.35,0.58v2.59
					h-0.85l-0.21-1.89c-0.37-0.14-0.77-0.21-1.18-0.21c-1.95,0-2.93,1.55-2.93,4.47c0,2.87,0.98,4.55,3.35,4.55
					c0.8,0,1.55-0.19,2.22-0.54l-0.14,0.98C270.81,401.95,269.92,402.24,268.88,402.24z"/>
				<path class="st2" d="M277.18,402.03l-0.08-0.62h-0.05c-0.77,0.46-1.46,0.83-2.37,0.83c-1.23,0-2.11-0.86-2.11-2.32
					c0-1.65,0.86-2.53,2.79-2.53c0.58,0,1.17,0.1,1.7,0.26v-1.41c0-0.98-0.58-1.44-1.78-1.44c-0.75,0-1.46,0.21-2,0.43l0.1-0.86
					c0.54-0.35,1.39-0.61,2.35-0.61c1.54,0,2.61,0.61,2.61,2.24v6.03H277.18z M277.05,398.46c-0.43-0.13-0.88-0.19-1.39-0.19
					c-1.31,0-1.86,0.5-1.86,1.5c0,0.82,0.45,1.44,1.38,1.44c0.67,0,1.26-0.26,1.87-0.62V398.46z"/>
				<path class="st2" d="M280.7,402.03v-11.7l1.28-0.14v11.84H280.7z"/>
				<path class="st2" d="M284.46,402.03v-11.7l1.28-0.14v11.84H284.46z"/>
				<path class="st2" d="M290.87,402.24c-2.13,0-3.41-1.18-3.41-4.32c0-2.66,1.07-4.16,3.17-4.16c1.74,0,2.9,1.02,2.9,3.36
					c0,0.26-0.02,0.7-0.06,0.96h-4.64c0,0.9,0.11,1.94,0.69,2.53c0.37,0.35,0.9,0.58,1.71,0.58c0.78,0,1.46-0.18,2.06-0.43
					l-0.1,0.88C292.65,402,291.74,402.24,290.87,402.24z M290.67,394.64c-1.23,0-1.74,0.9-1.82,2.53h3.41
					C292.31,395.42,291.74,394.64,290.67,394.64z"/>
				<path class="st2" d="M298.65,402.03v-1.01c3.07-2.61,4.19-3.75,4.19-5.54c0-1.5-0.86-2.18-2-2.18c-0.69,0-1.3,0.19-1.92,0.5
					l0.1-0.94c0.62-0.37,1.39-0.64,2.3-0.64c1.55,0,2.96,0.86,2.96,3.01c0,2.27-1.46,3.52-3.94,5.65v0.03H305l-0.16,1.12H298.65z"/>
				<path class="st2" d="M309.67,402.24c-2.54,0-3.19-2.03-3.19-5.17c0-3.41,0.94-6.05,3.73-6.05c0.82,0,1.58,0.26,2.13,0.59
					l0.13,0.91c-0.53-0.24-1.22-0.42-1.92-0.42c-1.98,0-2.61,1.71-2.69,4.08h0.02c0.69-0.42,1.49-0.77,2.39-0.77
					c1.54,0,2.58,1.1,2.58,3.25C312.84,401.1,311.55,402.24,309.67,402.24z M309.74,396.51c-0.69,0-1.3,0.26-1.87,0.59
					c-0.03,2.69,0.26,4.21,1.79,4.21c1.18,0,1.79-0.86,1.79-2.48C311.45,397.33,310.87,396.51,309.74,396.51z"/>
			</g>
			<g class="st0">
				<path class="st2" d="M191.15,448.03l-0.94-3.19h-3.62l-0.94,3.19h-1.33l3.31-10.8h1.74l3.25,10.8H191.15z M189.21,441.34
					c-0.29-0.96-0.56-1.92-0.78-2.91h-0.03c-0.24,1.01-0.53,1.95-0.82,2.91l-0.72,2.45h3.06L189.21,441.34z"/>
				<path class="st2" d="M194.8,448.03l-2.37-8.07h1.34l1.31,4.63c0.19,0.67,0.45,1.57,0.61,2.34h0.02
					c0.18-0.77,0.42-1.67,0.61-2.32l1.3-4.64h1.2l-2.37,8.07H194.8z"/>
				<path class="st2" d="M199.45,448.03v-1.42h1.22v1.42H199.45z"/>
				<path class="st2" d="M209.28,448.24c-2.83,0-4.39-1.95-4.39-5.59c0-3.35,1.33-5.63,4.34-5.63c0.94,0,1.78,0.26,2.35,0.58v2.59
					h-0.85l-0.21-1.89c-0.37-0.14-0.77-0.21-1.18-0.21c-1.95,0-2.93,1.55-2.93,4.47c0,2.87,0.98,4.55,3.35,4.55
					c0.8,0,1.55-0.19,2.22-0.54l-0.14,0.98C211.21,447.95,210.32,448.24,209.28,448.24z"/>
				<path class="st2" d="M217.58,448.03l-0.08-0.62h-0.05c-0.77,0.46-1.46,0.83-2.37,0.83c-1.23,0-2.11-0.86-2.11-2.32
					c0-1.65,0.86-2.53,2.79-2.53c0.58,0,1.17,0.1,1.7,0.26v-1.41c0-0.98-0.58-1.44-1.78-1.44c-0.75,0-1.46,0.21-2,0.43l0.1-0.86
					c0.54-0.35,1.39-0.61,2.35-0.61c1.54,0,2.61,0.61,2.61,2.24v6.03H217.58z M217.45,444.46c-0.43-0.13-0.88-0.19-1.39-0.19
					c-1.31,0-1.86,0.5-1.86,1.5c0,0.82,0.45,1.44,1.38,1.44c0.67,0,1.26-0.26,1.87-0.62V444.46z"/>
				<path class="st2" d="M221.1,448.03v-8.07h1.15l0.06,0.66h0.03c0.74-0.48,1.38-0.86,2-0.86c0.18,0,0.35,0.03,0.54,0.11l0.06,1.2
					c-0.16-0.05-0.38-0.08-0.59-0.08c-0.7,0-1.26,0.27-1.98,0.66v6.39H221.1z"/>
				<path class="st2" d="M229.84,448.03l-0.08-0.62h-0.05c-0.77,0.46-1.46,0.83-2.37,0.83c-1.23,0-2.11-0.86-2.11-2.32
					c0-1.65,0.86-2.53,2.79-2.53c0.58,0,1.17,0.1,1.7,0.26v-1.41c0-0.98-0.58-1.44-1.78-1.44c-0.75,0-1.46,0.21-2,0.43l0.1-0.86
					c0.54-0.35,1.39-0.61,2.35-0.61c1.54,0,2.61,0.61,2.61,2.24v6.03H229.84z M229.71,444.46c-0.43-0.13-0.88-0.19-1.39-0.19
					c-1.31,0-1.86,0.5-1.86,1.5c0,0.82,0.45,1.44,1.38,1.44c0.67,0,1.26-0.26,1.87-0.62V444.46z"/>
				<path class="st2" d="M235.71,448.24c-2.1,0-3.11-1.55-3.11-4.23c0-2.58,0.93-4.26,3.23-4.26c0.64,0,1.31,0.16,1.89,0.5v2.13
					h-0.74l-0.16-1.46c-0.24-0.1-0.54-0.14-0.86-0.14c-1.54,0-2,1.31-2,3.19c0,2.13,0.72,3.2,2.26,3.2c0.67,0,1.23-0.19,1.71-0.42
					l-0.1,0.88C237.32,448,236.56,448.24,235.71,448.24z"/>
				<path class="st2" d="M243.5,448.03l-0.08-0.62h-0.05c-0.77,0.46-1.46,0.83-2.37,0.83c-1.23,0-2.11-0.86-2.11-2.32
					c0-1.65,0.86-2.53,2.79-2.53c0.58,0,1.17,0.1,1.7,0.26v-1.41c0-0.98-0.58-1.44-1.78-1.44c-0.75,0-1.46,0.21-2,0.43l0.1-0.86
					c0.54-0.35,1.39-0.61,2.35-0.61c1.54,0,2.61,0.61,2.61,2.24v6.03H243.5z M243.37,444.46c-0.43-0.13-0.88-0.19-1.39-0.19
					c-1.31,0-1.86,0.5-1.86,1.5c0,0.82,0.45,1.44,1.38,1.44c0.67,0,1.26-0.26,1.87-0.62V444.46z"/>
				<path class="st2" d="M248.68,448.24c-0.69,0-1.5-0.11-2.14-0.43l-0.08-0.83c0.56,0.18,1.3,0.27,1.98,0.27
					c0.98,0,1.62-0.29,1.62-1.25c0-1.86-3.65-1.25-3.65-3.95c0-1.46,0.96-2.29,2.63-2.29c0.56,0,1.26,0.13,1.79,0.43l0.05,0.83
					c-0.5-0.18-1.12-0.27-1.71-0.27c-0.98,0-1.49,0.38-1.49,1.2c0,1.71,3.63,1.17,3.63,3.97
					C251.31,447.46,250.27,448.24,248.68,448.24z"/>
				<path class="st2" d="M254.94,448.03l4.96-10.8h0.94l-4.96,10.8H254.94z"/>
				<path class="st2" d="M268.88,448.24c-2.83,0-4.39-1.95-4.39-5.59c0-3.35,1.33-5.63,4.34-5.63c0.94,0,1.78,0.26,2.35,0.58v2.59
					h-0.85l-0.21-1.89c-0.37-0.14-0.77-0.21-1.18-0.21c-1.95,0-2.93,1.55-2.93,4.47c0,2.87,0.98,4.55,3.35,4.55
					c0.8,0,1.55-0.19,2.22-0.54l-0.14,0.98C270.81,447.95,269.92,448.24,268.88,448.24z"/>
				<path class="st2" d="M277.18,448.03l-0.08-0.62h-0.05c-0.77,0.46-1.46,0.83-2.37,0.83c-1.23,0-2.11-0.86-2.11-2.32
					c0-1.65,0.86-2.53,2.79-2.53c0.58,0,1.17,0.1,1.7,0.26v-1.41c0-0.98-0.58-1.44-1.78-1.44c-0.75,0-1.46,0.21-2,0.43l0.1-0.86
					c0.54-0.35,1.39-0.61,2.35-0.61c1.54,0,2.61,0.61,2.61,2.24v6.03H277.18z M277.05,444.46c-0.43-0.13-0.88-0.19-1.39-0.19
					c-1.31,0-1.86,0.5-1.86,1.5c0,0.82,0.45,1.44,1.38,1.44c0.67,0,1.26-0.26,1.87-0.62V444.46z"/>
				<path class="st2" d="M280.7,448.03v-11.7l1.28-0.14v11.84H280.7z"/>
				<path class="st2" d="M284.46,448.03v-11.7l1.28-0.14v11.84H284.46z"/>
				<path class="st2" d="M290.87,448.24c-2.13,0-3.41-1.18-3.41-4.32c0-2.66,1.07-4.16,3.17-4.16c1.74,0,2.9,1.02,2.9,3.36
					c0,0.26-0.02,0.7-0.06,0.96h-4.64c0,0.9,0.11,1.94,0.69,2.53c0.37,0.35,0.9,0.58,1.71,0.58c0.78,0,1.46-0.18,2.06-0.43
					l-0.1,0.88C292.65,448,291.74,448.24,290.87,448.24z M290.67,440.64c-1.23,0-1.74,0.9-1.82,2.53h3.41
					C292.31,441.42,291.74,440.64,290.67,440.64z"/>
				<path class="st2" d="M299.99,449.25l3.78-9.62h-3.81l-0.18,1.65h-0.8v-2.83h5.99v1.07c-1.23,3.06-2.87,7.44-3.49,9.73H299.99z"
					/>
				<path class="st2" d="M306.39,448.03v-1.01c3.07-2.61,4.19-3.75,4.19-5.54c0-1.5-0.86-2.18-2-2.18c-0.69,0-1.3,0.19-1.92,0.5
					l0.1-0.94c0.62-0.37,1.39-0.64,2.3-0.64c1.55,0,2.96,0.86,2.96,3.01c0,2.27-1.46,3.52-3.94,5.65v0.03h4.66l-0.16,1.12H306.39z"
					/>
			</g>
			<g class="st0">
				<path class="st2" d="M191.15,494.03l-0.94-3.19h-3.62l-0.94,3.19h-1.33l3.31-10.8h1.74l3.25,10.8H191.15z M189.21,487.34
					c-0.29-0.96-0.56-1.92-0.78-2.91h-0.03c-0.24,1.01-0.53,1.95-0.82,2.91l-0.72,2.45h3.06L189.21,487.34z"/>
				<path class="st2" d="M198.76,494.03l-0.06-0.66h-0.02c-0.72,0.46-1.46,0.86-2.38,0.86c-0.54,0-1.1-0.14-1.54-0.48
					c-0.64-0.53-0.72-1.22-0.72-2.21v-5.59h1.28v5.28c0,0.56,0,1.1,0.42,1.47c0.27,0.26,0.64,0.38,1.09,0.38
					c0.7,0,1.23-0.29,1.81-0.64v-6.5h1.28v8.07H198.76z"/>
				<path class="st2" d="M204.24,494.24c-1.2,0-1.86-0.62-1.86-2v-5.25h-0.85v-0.91l0.85-0.11v-1.78l1.26-0.21v1.98h1.98l-0.1,1.02
					h-1.89v4.93c0,0.9,0.34,1.3,1.1,1.3c0.3,0,0.67-0.08,0.98-0.21l-0.1,0.86C205.28,494.08,204.78,494.24,204.24,494.24z"/>
				<path class="st2" d="M209.85,494.24c-2.08,0-3.31-1.18-3.31-4.1c0-3.03,1.28-4.39,3.39-4.39c2.06,0,3.31,1.15,3.31,4.07
					C213.25,492.83,211.96,494.24,209.85,494.24z M209.92,486.75c-1.28,0-2.02,1.06-2.02,3.35c0,2.22,0.69,3.15,1.97,3.15
					c1.28,0,2.02-1.09,2.02-3.38C211.88,487.66,211.2,486.75,209.92,486.75z"/>
				<path class="st2" d="M217.93,494.24c-0.67,0-1.28-0.19-1.7-0.43v3.28l-1.28,0.14v-11.27h1.15l0.06,0.66h0.03
					c0.72-0.46,1.44-0.86,2.31-0.86c1.73,0,2.77,1.46,2.77,4.08C221.28,492.64,220.11,494.24,217.93,494.24z M218,486.91
					c-0.64,0-1.15,0.26-1.76,0.62v5.35c0.42,0.21,0.88,0.34,1.38,0.34c1.44,0,2.3-1.01,2.3-3.28
					C219.92,487.84,219.13,486.91,218,486.91z"/>
				<path class="st2" d="M222.95,483.37v-1.18h1.36v1.18H222.95z M224.14,494.03h-1.15v-8.07h1.28v8.07H224.14z"/>
				<path class="st2" d="M228.41,494.24c-0.69,0-1.5-0.11-2.14-0.43l-0.08-0.83c0.56,0.18,1.3,0.27,1.98,0.27
					c0.98,0,1.62-0.29,1.62-1.25c0-1.86-3.65-1.25-3.65-3.95c0-1.46,0.96-2.29,2.63-2.29c0.56,0,1.26,0.13,1.79,0.43l0.05,0.83
					c-0.5-0.18-1.12-0.27-1.71-0.27c-0.98,0-1.49,0.38-1.49,1.2c0,1.71,3.63,1.17,3.63,3.97C231.04,493.46,230,494.24,228.41,494.24
					z"/>
				<path class="st2" d="M234.44,494.24c-1.2,0-1.86-0.62-1.86-2v-5.25h-0.85v-0.91l0.85-0.11v-1.78l1.26-0.21v1.98h1.98l-0.1,1.02
					h-1.89v4.93c0,0.9,0.34,1.3,1.1,1.3c0.3,0,0.67-0.08,0.98-0.21l-0.1,0.86C235.48,494.08,234.99,494.24,234.44,494.24z"/>
				<path class="st2" d="M241.24,494.03l-0.08-0.62h-0.05c-0.77,0.46-1.46,0.83-2.37,0.83c-1.23,0-2.11-0.86-2.11-2.32
					c0-1.65,0.86-2.53,2.79-2.53c0.58,0,1.17,0.1,1.7,0.26v-1.41c0-0.98-0.58-1.44-1.78-1.44c-0.75,0-1.46,0.21-2,0.43l0.1-0.86
					c0.54-0.35,1.39-0.61,2.35-0.61c1.54,0,2.61,0.61,2.61,2.24v6.03H241.24z M241.12,490.46c-0.43-0.13-0.88-0.19-1.39-0.19
					c-1.31,0-1.86,0.5-1.86,1.5c0,0.82,0.45,1.44,1.38,1.44c0.67,0,1.26-0.26,1.87-0.62V490.46z"/>
				<path class="st2" d="M254.64,494.03l-3.71-6.74c-0.27-0.5-0.69-1.3-0.86-1.7h-0.02v8.44h-1.25v-10.8h1.47l3.55,6.51
					c0.29,0.54,0.78,1.46,1.01,1.97h0.03v-8.48h1.23v10.8H254.64z"/>
				<path class="st2" d="M261.29,494.24c-2.08,0-3.31-1.18-3.31-4.1c0-3.03,1.28-4.39,3.39-4.39c2.06,0,3.31,1.15,3.31,4.07
					C264.68,492.83,263.4,494.24,261.29,494.24z M261.36,486.75c-1.28,0-2.02,1.06-2.02,3.35c0,2.22,0.69,3.15,1.97,3.15
					c1.28,0,2.02-1.09,2.02-3.38C263.32,487.66,262.64,486.75,261.36,486.75z"/>
				<path class="st2" d="M266.39,494.03v-8.07h1.15l0.06,0.66h0.03c0.74-0.48,1.38-0.86,2-0.86c0.18,0,0.35,0.03,0.54,0.11l0.06,1.2
					c-0.16-0.05-0.38-0.08-0.59-0.08c-0.7,0-1.26,0.27-1.98,0.66v6.39H266.39z"/>
				<path class="st2" d="M273.48,494.24c-1.2,0-1.86-0.62-1.86-2v-5.25h-0.85v-0.91l0.85-0.11v-1.78l1.26-0.21v1.98h1.98l-0.1,1.02
					h-1.89v4.93c0,0.9,0.34,1.3,1.1,1.3c0.3,0,0.67-0.08,0.98-0.21l-0.1,0.86C274.52,494.08,274.03,494.24,273.48,494.24z"/>
				<path class="st2" d="M279.2,494.24c-2.13,0-3.41-1.18-3.41-4.32c0-2.66,1.07-4.16,3.17-4.16c1.74,0,2.9,1.02,2.9,3.36
					c0,0.26-0.02,0.7-0.06,0.96h-4.64c0,0.9,0.11,1.94,0.69,2.53c0.37,0.35,0.9,0.58,1.71,0.58c0.78,0,1.46-0.18,2.06-0.43
					l-0.1,0.88C280.97,494,280.06,494.24,279.2,494.24z M278.99,486.64c-1.23,0-1.74,0.9-1.82,2.53h3.41
					C280.64,487.42,280.06,486.64,278.99,486.64z"/>
				<path class="st2" d="M285.43,494.03l4.96-10.8h0.94l-4.96,10.8H285.43z"/>
				<path class="st2" d="M299.37,494.24c-2.83,0-4.39-1.95-4.39-5.59c0-3.35,1.33-5.63,4.34-5.63c0.94,0,1.78,0.26,2.35,0.58v2.59
					h-0.85l-0.21-1.89c-0.37-0.14-0.77-0.21-1.18-0.21c-1.95,0-2.93,1.55-2.93,4.47c0,2.87,0.98,4.55,3.35,4.55
					c0.8,0,1.55-0.19,2.22-0.54l-0.14,0.98C301.31,493.95,300.41,494.24,299.37,494.24z"/>
				<path class="st2" d="M307.68,494.03l-0.08-0.62h-0.05c-0.77,0.46-1.46,0.83-2.37,0.83c-1.23,0-2.11-0.86-2.11-2.32
					c0-1.65,0.86-2.53,2.79-2.53c0.58,0,1.17,0.1,1.7,0.26v-1.41c0-0.98-0.58-1.44-1.78-1.44c-0.75,0-1.46,0.21-2,0.43l0.1-0.86
					c0.54-0.35,1.39-0.61,2.35-0.61c1.54,0,2.61,0.61,2.61,2.24v6.03H307.68z M307.55,490.46c-0.43-0.13-0.88-0.19-1.39-0.19
					c-1.31,0-1.86,0.5-1.86,1.5c0,0.82,0.45,1.44,1.38,1.44c0.67,0,1.26-0.26,1.87-0.62V490.46z"/>
				<path class="st2" d="M311.19,494.03v-11.7l1.28-0.14v11.84H311.19z"/>
				<path class="st2" d="M314.95,494.03v-11.7l1.28-0.14v11.84H314.95z"/>
				<path class="st2" d="M321.37,494.24c-2.13,0-3.41-1.18-3.41-4.32c0-2.66,1.07-4.16,3.17-4.16c1.74,0,2.9,1.02,2.9,3.36
					c0,0.26-0.02,0.7-0.06,0.96h-4.64c0,0.9,0.11,1.94,0.69,2.53c0.37,0.35,0.9,0.58,1.71,0.58c0.78,0,1.46-0.18,2.06-0.43
					l-0.1,0.88C323.15,494,322.23,494.24,321.37,494.24z M321.16,486.64c-1.23,0-1.74,0.9-1.82,2.53h3.41
					C322.81,487.42,322.23,486.64,321.16,486.64z"/>
				<path class="st2" d="M329.18,491.46c0-1.6,0.77-2.37,2-3.03v-0.02c-0.94-0.54-1.78-1.25-1.78-2.75c0-1.7,1.02-2.64,2.98-2.64
					c1.65,0,2.82,0.78,2.82,2.5c0,1.47-0.77,2.11-1.82,2.74v0.03c1.34,0.66,2.02,1.39,2.02,2.95c0,2-1.17,3.01-3.15,3.01
					C330.44,494.24,329.18,493.41,329.18,491.46z M334.11,491.28c0-1.18-0.66-1.75-1.98-2.34c-1.09,0.54-1.78,1.12-1.78,2.46
					c0,1.28,0.74,1.9,1.87,1.9C333.45,493.31,334.11,492.62,334.11,491.28z M330.68,485.63c0,1.12,0.61,1.6,1.79,2.18
					c1.07-0.58,1.58-1.09,1.58-2.22c0-1.14-0.72-1.65-1.68-1.65C331.18,483.93,330.68,484.54,330.68,485.63z"/>
				<path class="st2" d="M339.99,494.24c-2.11,0-3.3-1.36-3.3-4.88s1.28-5.14,3.35-5.14c2.1,0,3.3,1.36,3.3,4.87
					C343.34,492.62,342.04,494.24,339.99,494.24z M340.04,485.18c-1.26,0-1.97,1.23-1.97,4.18c0,2.85,0.67,3.92,1.92,3.92
					s1.95-1.23,1.95-4.18C341.95,486.25,341.29,485.18,340.04,485.18z"/>
			</g>
			<g class="st0">
				<path class="st1" d="M185.5,297.03v-12.15h6.52l0.13,1.53h-4.56v3.55h4.16v1.51h-4.16v4.03h4.93l-0.14,1.53H185.5z"/>
				<path class="st1" d="M197.01,297.27c-1.03,0-2.03-0.22-2.88-0.72l-0.16-1.4c0.79,0.34,1.76,0.52,2.59,0.52
					c1.57,0,2.23-0.7,2.23-1.76c0-2.45-4.88-1.82-4.88-5.8c0-2.27,1.46-3.46,3.62-3.46c1.03,0,1.98,0.27,2.65,0.7l0.16,1.4
					c-0.68-0.29-1.53-0.49-2.38-0.49c-1.33,0-1.96,0.65-1.96,1.64c0,2.43,4.86,1.76,4.86,5.8
					C200.86,296.1,199.29,297.27,197.01,297.27z"/>
				<path class="st1" d="M204.89,297.03v-10.62h-3.53l0.14-1.53h8.86l0.14,1.53h-3.53v10.62H204.89z"/>
				<path class="st1" d="M217.08,297.03l-0.95-3.28h-3.91l-0.95,3.28h-1.93l3.66-12.15h2.68l3.6,12.15H217.08z M215.04,289.78
					c-0.31-1.08-0.59-2.12-0.83-3.22h-0.04c-0.25,1.12-0.56,2.12-0.86,3.22l-0.7,2.47h3.13L215.04,289.78z"/>
				<path class="st1" d="M225.01,297.27c-3.19,0-5.04-2.09-5.04-6.27c0-3.83,1.55-6.36,4.99-6.36c1.12,0,2.09,0.29,2.75,0.65v3.24
					h-1.19l-0.29-2.12c-0.34-0.14-0.72-0.22-1.1-0.22c-1.93,0-2.92,1.57-2.92,4.61c0,3.1,1.04,4.83,3.53,4.83
					c0.88,0,1.69-0.2,2.43-0.58l-0.16,1.4C227.26,296.94,226.24,297.27,225.01,297.27z"/>
				<path class="st1" d="M230.18,297.03v-12.15h2.09v12.15H230.18z"/>
				<path class="st1" d="M239.18,297.27c-3.21,0-4.84-1.95-4.84-6.12c0-4.32,1.71-6.5,4.99-6.5c3.22,0,4.86,1.87,4.86,6.07
					C244.19,295.02,242.47,297.27,239.18,297.27z M239.32,286.19c-1.87,0-2.74,1.55-2.74,4.9c0,3.28,0.81,4.63,2.63,4.63
					c1.85,0,2.72-1.58,2.72-4.97C241.93,287.51,241.12,286.19,239.32,286.19z M238.44,284.14c0.68-0.9,1.4-1.96,1.85-2.74h2.14
					c-0.65,0.86-1.58,2-2.34,2.74H238.44z"/>
				<path class="st1" d="M252.75,297.03l-3.71-6.75c-0.29-0.54-0.77-1.46-0.95-1.91h-0.02v8.66h-1.82v-12.15h2.18l3.51,6.55
					c0.32,0.59,0.88,1.64,1.12,2.21h0.04v-8.77h1.82v12.15H252.75z"/>
				<path class="st1" d="M262.42,297.03v-1.04l2.16-0.22v-7.85h-0.05c-0.74,0.09-1.58,0.25-2.56,0.45l0.07-1.12
					c0.88-0.38,2.16-0.79,3.42-1.13h1.13v9.65l1.93,0.22v1.04H262.42z"/>
			</g>
			<g class="st0">
				<path class="st1" d="M185.5,342.03v-12.15h6.52l0.13,1.53h-4.56v3.55h4.16v1.51h-4.16v4.03h4.93l-0.14,1.53H185.5z"/>
				<path class="st1" d="M197.01,342.27c-1.03,0-2.03-0.22-2.88-0.72l-0.16-1.4c0.79,0.34,1.76,0.52,2.59,0.52
					c1.57,0,2.23-0.7,2.23-1.76c0-2.45-4.88-1.82-4.88-5.8c0-2.27,1.46-3.46,3.62-3.46c1.03,0,1.98,0.27,2.65,0.7l0.16,1.4
					c-0.68-0.29-1.53-0.49-2.38-0.49c-1.33,0-1.96,0.65-1.96,1.64c0,2.43,4.86,1.76,4.86,5.8
					C200.86,341.1,199.29,342.27,197.01,342.27z"/>
				<path class="st1" d="M204.89,342.03v-10.62h-3.53l0.14-1.53h8.86l0.14,1.53h-3.53v10.62H204.89z"/>
				<path class="st1" d="M217.08,342.03l-0.95-3.28h-3.91l-0.95,3.28h-1.93l3.66-12.15h2.68l3.6,12.15H217.08z M215.04,334.78
					c-0.31-1.08-0.59-2.12-0.83-3.22h-0.04c-0.25,1.12-0.56,2.12-0.86,3.22l-0.7,2.47h3.13L215.04,334.78z"/>
				<path class="st1" d="M225.01,342.27c-3.19,0-5.04-2.09-5.04-6.27c0-3.83,1.55-6.36,4.99-6.36c1.12,0,2.09,0.29,2.75,0.65v3.24
					h-1.19l-0.29-2.12c-0.34-0.14-0.72-0.22-1.1-0.22c-1.93,0-2.92,1.57-2.92,4.61c0,3.1,1.04,4.83,3.53,4.83
					c0.88,0,1.69-0.2,2.43-0.58l-0.16,1.4C227.26,341.94,226.24,342.27,225.01,342.27z"/>
				<path class="st1" d="M230.18,342.03v-12.15h2.09v12.15H230.18z"/>
				<path class="st1" d="M239.18,342.27c-3.21,0-4.84-1.95-4.84-6.12c0-4.32,1.71-6.5,4.99-6.5c3.22,0,4.86,1.87,4.86,6.07
					C244.19,340.02,242.47,342.27,239.18,342.27z M239.32,331.19c-1.87,0-2.74,1.55-2.74,4.9c0,3.28,0.81,4.63,2.63,4.63
					c1.85,0,2.72-1.58,2.72-4.97C241.93,332.51,241.12,331.19,239.32,331.19z M238.44,329.14c0.68-0.9,1.4-1.96,1.85-2.74h2.14
					c-0.65,0.86-1.58,2-2.34,2.74H238.44z"/>
				<path class="st1" d="M252.75,342.03l-3.71-6.75c-0.29-0.54-0.77-1.46-0.95-1.91h-0.02v8.66h-1.82v-12.15h2.18l3.51,6.55
					c0.32,0.59,0.88,1.64,1.12,2.21h0.04v-8.77h1.82v12.15H252.75z"/>
				<path class="st1" d="M262.81,343.38l4.29-10.37h-3.93l-0.23,1.85h-1.12v-3.64h7v1.66c-1.44,3.37-3.19,7.96-3.87,10.5H262.81z"/>
			</g>
			<g class="st0">
				<path class="st1" d="M185.5,387.03v-12.15h6.52l0.13,1.53h-4.56v3.55h4.16v1.51h-4.16v4.03h4.93l-0.14,1.53H185.5z"/>
				<path class="st1" d="M197.01,387.27c-1.03,0-2.03-0.22-2.88-0.72l-0.16-1.4c0.79,0.34,1.76,0.52,2.59,0.52
					c1.57,0,2.23-0.7,2.23-1.76c0-2.45-4.88-1.82-4.88-5.8c0-2.27,1.46-3.46,3.62-3.46c1.03,0,1.98,0.27,2.65,0.7l0.16,1.4
					c-0.68-0.29-1.53-0.49-2.38-0.49c-1.33,0-1.96,0.65-1.96,1.64c0,2.43,4.86,1.76,4.86,5.8
					C200.86,386.1,199.29,387.27,197.01,387.27z"/>
				<path class="st1" d="M204.89,387.03v-10.62h-3.53l0.14-1.53h8.86l0.14,1.53h-3.53v10.62H204.89z"/>
				<path class="st1" d="M217.08,387.03l-0.95-3.28h-3.91l-0.95,3.28h-1.93l3.66-12.15h2.68l3.6,12.15H217.08z M215.04,379.78
					c-0.31-1.08-0.59-2.12-0.83-3.22h-0.04c-0.25,1.12-0.56,2.12-0.86,3.22l-0.7,2.47h3.13L215.04,379.78z"/>
				<path class="st1" d="M225.01,387.27c-3.19,0-5.04-2.09-5.04-6.27c0-3.83,1.55-6.36,4.99-6.36c1.12,0,2.09,0.29,2.75,0.65v3.24
					h-1.19l-0.29-2.12c-0.34-0.14-0.72-0.22-1.1-0.22c-1.93,0-2.92,1.57-2.92,4.61c0,3.1,1.04,4.83,3.53,4.83
					c0.88,0,1.69-0.2,2.43-0.58l-0.16,1.4C227.26,386.94,226.24,387.27,225.01,387.27z"/>
				<path class="st1" d="M230.18,387.03v-12.15h2.09v12.15H230.18z"/>
				<path class="st1" d="M239.18,387.27c-3.21,0-4.84-1.95-4.84-6.12c0-4.32,1.71-6.5,4.99-6.5c3.22,0,4.86,1.87,4.86,6.07
					C244.19,385.02,242.47,387.27,239.18,387.27z M239.32,376.19c-1.87,0-2.74,1.55-2.74,4.9c0,3.28,0.81,4.63,2.63,4.63
					c1.85,0,2.72-1.58,2.72-4.97C241.93,377.51,241.12,376.19,239.32,376.19z M238.44,374.14c0.68-0.9,1.4-1.96,1.85-2.74h2.14
					c-0.65,0.86-1.58,2-2.34,2.74H238.44z"/>
				<path class="st1" d="M252.75,387.03l-3.71-6.75c-0.29-0.54-0.77-1.46-0.95-1.91h-0.02v8.66h-1.82v-12.15h2.18l3.51,6.55
					c0.32,0.59,0.88,1.64,1.12,2.21h0.04v-8.77h1.82v12.15H252.75z"/>
				<path class="st1" d="M262.42,387.03v-1.04l2.16-0.22v-7.85h-0.05c-0.74,0.09-1.58,0.25-2.56,0.45l0.07-1.12
					c0.88-0.38,2.16-0.79,3.42-1.13h1.13v9.65l1.93,0.22v1.04H262.42z"/>
				<path class="st1" d="M273.16,388.64c-1.04,0-2.03-0.27-2.77-0.74l-0.16-1.31c0.76,0.32,1.53,0.47,2.3,0.47
					c1.73,0,2.5-0.7,2.5-2.11c0-1.33-0.76-1.91-2.34-1.91h-1.33v-1.51h1.12c1.3,0,2.18-0.61,2.18-2.07c0-1.22-0.74-1.87-1.98-1.87
					c-0.74,0-1.39,0.14-2.14,0.47l0.11-1.33c0.76-0.47,1.73-0.72,2.77-0.72c1.82,0,3.37,0.9,3.37,3.12c0,1.62-0.77,2.59-1.96,3.02
					v0.04c1.35,0.2,2.34,1.06,2.34,2.93C277.16,387.3,275.88,388.64,273.16,388.64z"/>
			</g>
			<g class="st0">
				<path class="st1" d="M185.5,432.03v-12.15h6.52l0.13,1.53h-4.56v3.55h4.16v1.51h-4.16v4.03h4.93l-0.14,1.53H185.5z"/>
				<path class="st1" d="M197.01,432.27c-1.03,0-2.03-0.22-2.88-0.72l-0.16-1.4c0.79,0.34,1.76,0.52,2.59,0.52
					c1.57,0,2.23-0.7,2.23-1.76c0-2.45-4.88-1.82-4.88-5.8c0-2.27,1.46-3.46,3.62-3.46c1.03,0,1.98,0.27,2.65,0.7l0.16,1.4
					c-0.68-0.29-1.53-0.49-2.38-0.49c-1.33,0-1.96,0.65-1.96,1.64c0,2.43,4.86,1.76,4.86,5.8
					C200.86,431.1,199.29,432.27,197.01,432.27z"/>
				<path class="st1" d="M204.89,432.03v-10.62h-3.53l0.14-1.53h8.86l0.14,1.53h-3.53v10.62H204.89z"/>
				<path class="st1" d="M217.08,432.03l-0.95-3.28h-3.91l-0.95,3.28h-1.93l3.66-12.15h2.68l3.6,12.15H217.08z M215.04,424.78
					c-0.31-1.08-0.59-2.12-0.83-3.22h-0.04c-0.25,1.12-0.56,2.12-0.86,3.22l-0.7,2.47h3.13L215.04,424.78z"/>
				<path class="st1" d="M225.01,432.27c-3.19,0-5.04-2.09-5.04-6.27c0-3.83,1.55-6.36,4.99-6.36c1.12,0,2.09,0.29,2.75,0.65v3.24
					h-1.19l-0.29-2.12c-0.34-0.14-0.72-0.22-1.1-0.22c-1.93,0-2.92,1.57-2.92,4.61c0,3.1,1.04,4.83,3.53,4.83
					c0.88,0,1.69-0.2,2.43-0.58l-0.16,1.4C227.26,431.94,226.24,432.27,225.01,432.27z"/>
				<path class="st1" d="M230.18,432.03v-12.15h2.09v12.15H230.18z"/>
				<path class="st1" d="M239.18,432.27c-3.21,0-4.84-1.95-4.84-6.12c0-4.32,1.71-6.5,4.99-6.5c3.22,0,4.86,1.87,4.86,6.07
					C244.19,430.02,242.47,432.27,239.18,432.27z M239.32,421.19c-1.87,0-2.74,1.55-2.74,4.9c0,3.28,0.81,4.63,2.63,4.63
					c1.85,0,2.72-1.58,2.72-4.97C241.93,422.51,241.12,421.19,239.32,421.19z M238.44,419.14c0.68-0.9,1.4-1.96,1.85-2.74h2.14
					c-0.65,0.86-1.58,2-2.34,2.74H238.44z"/>
				<path class="st1" d="M252.75,432.03l-3.71-6.75c-0.29-0.54-0.77-1.46-0.95-1.91h-0.02v8.66h-1.82v-12.15h2.18l3.51,6.55
					c0.32,0.59,0.88,1.64,1.12,2.21h0.04v-8.77h1.82v12.15H252.75z"/>
				<path class="st1" d="M262.42,432.03v-1.04l2.16-0.22v-7.85h-0.05c-0.74,0.09-1.58,0.25-2.56,0.45l0.07-1.12
					c0.88-0.38,2.16-0.79,3.42-1.13h1.13v9.65l1.93,0.22v1.04H262.42z"/>
				<path class="st1" d="M273.9,432.27c-2.92,0-3.76-2.18-3.76-5.83c0-3.91,1.19-6.79,4.39-6.79c0.95,0,1.89,0.27,2.56,0.72
					l0.16,1.33c-0.61-0.27-1.39-0.47-2.18-0.47c-2.14,0-2.81,1.67-2.88,4.18h0.02c0.72-0.47,1.6-0.86,2.61-0.86
					c1.69,0,2.86,1.22,2.86,3.67C277.68,430.97,276.13,432.27,273.9,432.27z M273.97,426.16c-0.65,0-1.24,0.23-1.78,0.56
					c-0.04,2.74,0.23,4.2,1.71,4.2c1.15,0,1.73-0.86,1.73-2.47C275.63,426.94,275.07,426.16,273.97,426.16z"/>
			</g>
			<g class="st0">
				<path class="st1" d="M189.66,477.27c-3.19,0-5.04-2.09-5.04-6.27c0-3.83,1.55-6.36,4.99-6.36c1.12,0,2.09,0.29,2.75,0.65v3.24
					h-1.19l-0.29-2.12c-0.34-0.14-0.72-0.22-1.1-0.22c-1.93,0-2.92,1.57-2.92,4.61c0,3.1,1.04,4.83,3.53,4.83
					c0.88,0,1.69-0.2,2.43-0.58l-0.16,1.4C191.91,476.94,190.89,477.27,189.66,477.27z"/>
				<path class="st1" d="M198.7,477.27c-3.2,0-4.84-1.95-4.84-6.12c0-4.32,1.71-6.5,4.99-6.5c3.22,0,4.86,1.87,4.86,6.07
					C203.7,475.02,201.99,477.27,198.7,477.27z M198.84,466.19c-1.87,0-2.74,1.55-2.74,4.9c0,3.28,0.81,4.63,2.63,4.63
					c1.85,0,2.72-1.58,2.72-4.97C201.45,467.51,200.64,466.19,198.84,466.19z"/>
				<path class="st1" d="M205.77,477.03v-12.15h2.09v10.62h4.68l-0.14,1.53H205.77z"/>
				<path class="st1" d="M220.87,477.03l-0.95-3.28h-3.91l-0.95,3.28h-1.93l3.66-12.15h2.68l3.6,12.15H220.87z M218.84,469.78
					c-0.31-1.08-0.59-2.12-0.83-3.22h-0.04c-0.25,1.12-0.56,2.12-0.86,3.22l-0.7,2.47h3.13L218.84,469.78z"/>
				<path class="st1" d="M233.11,477.03h-3.92v-12.15h3.92c3.8,0,5.35,2.03,5.35,5.98C238.46,474.67,236.79,477.03,233.11,477.03z
					 M232.82,466.32h-1.55v9.27h1.55c2.27,0,3.4-1.44,3.4-4.72C236.23,467.62,235.13,466.32,232.82,466.32z"/>
				<path class="st1" d="M240.53,477.03v-12.15h6.52l0.13,1.53h-4.56v3.55h4.16v1.51h-4.16v4.03h4.93l-0.14,1.53H240.53z"/>
				<path class="st1" d="M262.81,477.03l-0.2-6.9c-0.02-0.61-0.02-1.3-0.02-2h-0.04c-0.2,0.72-0.4,1.3-0.59,1.93l-1.73,5.15h-1.94
					l-1.78-5.15c-0.2-0.56-0.4-1.19-0.59-1.93h-0.04c0,0.72,0,1.39-0.02,2l-0.18,6.9h-1.8l0.36-12.15h2.68l1.87,5.65
					c0.2,0.72,0.41,1.46,0.56,2.2h0.05c0.16-0.74,0.36-1.48,0.58-2.2l1.84-5.65h2.68l0.4,12.15H262.81z"/>
				<path class="st1" d="M274.21,477.03l-0.95-3.28h-3.91l-0.95,3.28h-1.93l3.66-12.15h2.68l3.6,12.15H274.21z M272.17,469.78
					c-0.31-1.08-0.59-2.12-0.83-3.22h-0.04c-0.25,1.12-0.56,2.12-0.86,3.22l-0.7,2.47h3.13L272.17,469.78z"/>
				<path class="st1" d="M284.67,477.03l-3.71-6.75c-0.29-0.54-0.77-1.46-0.95-1.91h-0.02v8.66h-1.82v-12.15h2.18l3.51,6.55
					c0.32,0.59,0.88,1.64,1.12,2.21h0.04v-8.77h1.82v12.15H284.67z"/>
				<path class="st1" d="M289.78,477.03v-12.15h2.09v12.15H289.78z"/>
				<path class="st1" d="M298.78,477.27c-3.21,0-4.84-1.95-4.84-6.12c0-4.32,1.71-6.5,4.99-6.5c3.22,0,4.86,1.87,4.86,6.07
					C303.78,475.02,302.07,477.27,298.78,477.27z M298.92,466.19c-1.87,0-2.74,1.55-2.74,4.9c0,3.28,0.81,4.63,2.63,4.63
					c1.85,0,2.72-1.58,2.72-4.97C301.53,467.51,300.72,466.19,298.92,466.19z"/>
				<path class="st1" d="M310.01,477.03h-4.16v-12.15h3.96c1.94,0,3.64,0.72,3.64,3.02c0,1.51-0.94,2.41-2.2,2.7v0.02
					c1.55,0.13,2.77,1.03,2.77,2.95C314.02,475.81,312.6,477.03,310.01,477.03z M309.18,466.25h-1.24v3.78h1.44
					c1.04,0,1.91-0.58,1.91-1.91C311.29,466.68,310.46,466.25,309.18,466.25z M309.45,471.45h-1.51v4.21h1.44
					c1.6,0,2.41-0.59,2.41-2.2C311.79,472.01,310.85,471.45,309.45,471.45z"/>
				<path class="st1" d="M322.77,477.03l-1.17-3.06c-0.68-1.62-1.17-2.05-2.07-2.05h-1.15v5.11h-2.09v-12.15h4.05
					c2.39,0,3.75,1.08,3.75,3.35c0,1.64-0.86,2.63-2.27,3.03v0.04c0.88,0.49,1.31,1.12,1.85,2.38l1.37,3.37H322.77z M319.75,466.25
					h-1.37v4.25h1.39c1.31,0,2.14-0.68,2.14-2.14C321.91,467.06,321.33,466.25,319.75,466.25z"/>
				<path class="st1" d="M333.62,477.03l-0.95-3.28h-3.91l-0.95,3.28h-1.93l3.66-12.15h2.68l3.6,12.15H333.62z M331.59,469.78
					c-0.31-1.08-0.59-2.12-0.83-3.22h-0.04c-0.25,1.12-0.56,2.12-0.86,3.22l-0.7,2.47h3.13L331.59,469.78z"/>
				<path class="st1" d="M339.91,477.27c-1.03,0-2.03-0.22-2.88-0.72l-0.16-1.4c0.79,0.34,1.76,0.52,2.59,0.52
					c1.57,0,2.23-0.7,2.23-1.76c0-2.45-4.88-1.82-4.88-5.8c0-2.27,1.46-3.46,3.62-3.46c1.03,0,1.98,0.27,2.65,0.7l0.16,1.4
					c-0.68-0.29-1.53-0.49-2.38-0.49c-1.33,0-1.96,0.65-1.96,1.64c0,2.43,4.86,1.76,4.86,5.8
					C343.76,476.1,342.19,477.27,339.91,477.27z"/>
			</g>
		</g>
		<g id="Grupo_1160" transform="translate(161.309 231.121)">
			<path id="Trazado_1011_00000017497571962029633840000010691100071425507239_" class="st3" d="M9.22-4.97v271.3"/>
		</g>
	</g>
</g>
<g id="Circulos">
	<path id="parada-1" class="st4" d="M9.72,39.14c4.52,0,8.19,3.67,8.19,8.19c0,4.52-3.67,8.19-8.19,8.19
		c-4.52,0-8.19-3.67-8.19-8.19S5.19,39.14,9.72,39.14C9.72,39.14,9.72,39.14,9.72,39.14"/>
	<path id="parada-2" class="st5" d="M9.72,84.25c4.52,0,8.19,3.67,8.19,8.19c0,4.52-3.67,8.19-8.19,8.19
		c-4.52,0-8.19-3.67-8.19-8.19S5.19,84.25,9.72,84.25C9.72,84.25,9.72,84.25,9.72,84.25"/>
	<path id="parada-3" class="st5" d="M9.72,129.71c4.52,0,8.19,3.67,8.19,8.19c0,4.52-3.67,8.19-8.19,8.19
		c-4.52,0-8.19-3.67-8.19-8.19C1.53,133.38,5.19,129.71,9.72,129.71C9.72,129.71,9.72,129.71,9.72,129.71"/>
	<path id="parada-4" class="st5" d="M9.72,175.17c4.52,0,8.19,3.67,8.19,8.19c0,4.52-3.67,8.19-8.19,8.19
		c-4.52,0-8.19-3.67-8.19-8.19C1.53,178.84,5.19,175.17,9.72,175.17C9.72,175.17,9.72,175.17,9.72,175.17"/>
	<path id="parada-5" class="st5" d="M9.72,220.63c4.52,0,8.19,3.67,8.19,8.19c0,4.52-3.67,8.19-8.19,8.19
		c-4.52,0-8.19-3.67-8.19-8.19C1.53,224.3,5.19,220.63,9.72,220.63C9.72,220.63,9.72,220.63,9.72,220.63"/>
	<path id="parada-6" class="st5" d="M9.72,265.52c4.52,0,8.19,3.67,8.19,8.19c0,4.52-3.67,8.19-8.19,8.19
		c-4.52,0-8.19-3.67-8.19-8.19C1.53,269.19,5.19,265.52,9.72,265.52C9.72,265.52,9.72,265.52,9.72,265.52"/>
</g>
</svg>
