<?xml version="1.0" encoding="utf-8"?>
<!-- Generator: Adobe Illustrator 27.8.1, SVG Export Plug-In . SVG Version: 6.00 Build 0)  -->
<svg version="1.1" id="Capa_1" xmlns="http://www.w3.org/2000/svg" xmlns:xlink="http://www.w3.org/1999/xlink" x="0px" y="0px"
	 viewBox="0 0 231.2 788" style="enable-background:new 0 0 231.2 788;" xml:space="preserve">
<style type="text/css">
	.st0{fill:#2C2A26;}
	.st1{fill:#41403C;}
	.st2{fill:#575552;}
	.st3{fill:#373531;}
	.st4{fill:none;stroke:#D8D9CF;stroke-width:4;stroke-miterlimit:10;}
	.st5{fill:none;stroke:#2C2A26;stroke-width:6;stroke-miterlimit:10;}
	.st6{fill:none;}
	.st7{fill:none;stroke:#2C2A26;stroke-width:4;stroke-miterlimit:10;}
	.st8{fill:none;stroke:#D8D9CF;stroke-width:7;stroke-linecap:round;stroke-miterlimit:10;}
	.st9{fill:none;stroke:#D8D9CF;stroke-width:4;stroke-linecap:round;stroke-miterlimit:10;}
	.st10{fill:none;stroke:#D8D9CF;stroke-width:4;stroke-linecap:round;stroke-miterlimit:10;stroke-dasharray:5.88,17.64;}
	
		.st11{fill:none;stroke:#D8D9CF;stroke-width:4;stroke-linecap:round;stroke-miterlimit:10;stroke-dasharray:23.5199,5.88,5.88,17.64;}
	.st12{fill:#A6CD6D;}
	.st13{fill:#D8D9CF;}
	.st14{fill:#6B8B84;}
	.st15{fill:#89A29D;}
	.st16{fill:none;stroke:#2C2A26;stroke-width:5;stroke-miterlimit:10;}
	.st17{fill:#41403C;stroke:#2C2A26;stroke-width:4;stroke-miterlimit:10;}
	.st18{fill:#817F7D;}
	.st19{fill:none;stroke:#D8D9CF;stroke-width:4;stroke-linecap:round;stroke-miterlimit:10;stroke-dasharray:8.5225,25.5674;}
	
		.st20{fill:none;stroke:#D8D9CF;stroke-width:4;stroke-linecap:round;stroke-miterlimit:10;stroke-dasharray:34.0899,8.5225,8.5225,25.5674;}
</style>
<g id="Puerta-Izq">
	<g>
		<path class="st0" d="M234.3-40.7v860.2H-32.1c-27.1,0-49.1-22-49.1-49V8.4c0-27.1,22-49.1,49.1-49.1H234.3z M220.3,805.5V-26.7
			H-32.1c-19.3,0-35.1,15.7-35.1,35.1v762.1c0,19.3,15.7,35,35.1,35H220.3z"/>
		<path class="st1" d="M220.3-26.7v832.2H-32.1c-19.3,0-35.1-15.7-35.1-35V8.4c0-19.3,15.7-35.1,35.1-35.1H220.3z M174.5,717.2V565
			c0-17.8-14.4-32.2-32.2-32.2H7.1c-17.8,0-32.2,14.4-32.2,32.2v152.2c0,17.8,14.4,32.2,32.2,32.2h135.2
			C160.1,749.4,174.5,735,174.5,717.2z M174.5,455.9V72.2c0-17.8-14.4-32.2-32.2-32.2H7.1c-17.8,0-32.2,14.4-32.2,32.2v383.7
			c0,17.8,14.4,32.2,32.2,32.2h135.2C160.1,488.1,174.5,473.7,174.5,455.9z"/>
		<path class="st2" d="M174.5,565v152.2c0,17.8-14.4,32.2-32.2,32.2H7.1c-17.8,0-32.2-14.4-32.2-32.2V565
			c0-17.8,14.4-32.2,32.2-32.2h135.2C160.1,532.7,174.5,547.2,174.5,565z M160.5,717.2V565c0-10-8.2-18.2-18.2-18.2H7.1
			c-10,0-18.2,8.2-18.2,18.2v152.2c0,10,8.2,18.2,18.2,18.2h135.2C152.4,735.4,160.5,727.2,160.5,717.2z"/>
		<path class="st2" d="M174.5,72.2v383.7c0,17.8-14.4,32.2-32.2,32.2H7.1c-17.8,0-32.2-14.4-32.2-32.2V72.2
			C-25.1,54.4-10.7,40,7.1,40h135.2C160.1,40,174.5,54.4,174.5,72.2z M160.5,455.9V72.2c0-10-8.2-18.2-18.2-18.2H7.1
			c-10,0-18.2,8.2-18.2,18.2v383.7c0,10,8.2,18.2,18.2,18.2h135.2C152.4,474.1,160.5,466,160.5,455.9z"/>
		<path class="st0" d="M160.5,565v152.2c0,10-8.2,18.2-18.2,18.2H7.1c-10,0-18.2-8.2-18.2-18.2V565c0-10,8.2-18.2,18.2-18.2h135.2
			C152.4,546.7,160.5,554.9,160.5,565z"/>
		<path class="st0" d="M160.5,72.2v383.7c0,10-8.2,18.2-18.2,18.2H7.1c-10,0-18.2-8.2-18.2-18.2V72.2c0-10,8.2-18.2,18.2-18.2h135.2
			C152.4,54,160.5,62.2,160.5,72.2z"/>
		<path class="st3" d="M142.3,749.4H7.1c-17.8,0-32.2-14.4-32.2-32.2V565c0-4.5,0.9-8.8,2.6-12.6c-8.4,5.8-13.8,15.5-13.8,26.5V731
			c0,17.8,14.4,32.2,32.2,32.2H131c13.3,0,24.7-8.1,29.7-19.6C155.5,747.3,149.2,749.4,142.3,749.4z M142.3,488.1H7.1
			c-17.8,0-32.2-14.4-32.2-32.2V72.2c0-4.5,0.9-8.8,2.6-12.6c-8.4,5.8-13.8,15.5-13.8,26.5v383.7c0,17.8,14.4,32.2,32.2,32.2H131
			c13.3,0,24.7-8.1,29.7-19.6C155.5,486,149.2,488.1,142.3,488.1z M-32.1-26.7c-14.2,0-26.4,8.4-31.9,20.6c5.8-4.3,13-6.8,20.7-6.8
			H209v818.3h11.3V-26.7H-32.1z M142.3,488.1H7.1c-17.8,0-32.2-14.4-32.2-32.2V72.2c0-4.5,0.9-8.8,2.6-12.6
			c-8.4,5.8-13.8,15.5-13.8,26.5v383.7c0,17.8,14.4,32.2,32.2,32.2H131c13.3,0,24.7-8.1,29.7-19.6
			C155.5,486,149.2,488.1,142.3,488.1z M142.3,749.4H7.1c-17.8,0-32.2-14.4-32.2-32.2V565c0-4.5,0.9-8.8,2.6-12.6
			c-8.4,5.8-13.8,15.5-13.8,26.5V731c0,17.8,14.4,32.2,32.2,32.2H131c13.3,0,24.7-8.1,29.7-19.6
			C155.5,747.3,149.2,749.4,142.3,749.4z"/>
		<path class="st5" d="M174.5,455.9V72.2c0-17.8-14.4-32.2-32.2-32.2H7.1c-17.8,0-32.2,14.4-32.2,32.2v383.7
			c0,17.8,14.4,32.2,32.2,32.2h135.2C160.1,488.1,174.5,473.7,174.5,455.9z"/>
		<path class="st6" d="M160.5,455.9c0,10-8.2,18.2-18.2,18.2H7.1c-10,0-18.2-8.2-18.2-18.2V72.2c0-10,8.2-18.2,18.2-18.2h135.2
			c10.1,0,18.2,8.2,18.2,18.2V455.9z"/>
		<path class="st5" d="M174.5,717.2V565c0-17.8-14.4-32.2-32.2-32.2H7.1c-17.8,0-32.2,14.4-32.2,32.2v152.2
			c0,17.8,14.4,32.2,32.2,32.2h135.2C160.1,749.4,174.5,735,174.5,717.2z"/>
		<path class="st6" d="M160.5,717.2c0,10-8.2,18.2-18.2,18.2H7.1c-10,0-18.2-8.2-18.2-18.2V565c0-10,8.2-18.2,18.2-18.2h135.2
			c10.1,0,18.2,8.2,18.2,18.2V717.2z"/>
		<path class="st7" d="M220.3-26.7v832.2H-32.1c-19.3,0-35.1-15.7-35.1-35V8.4c0-19.3,15.7-35.1,35.1-35.1H220.3z"/>
		<path class="st4" d="M-32.1,819.5c-27.1,0-49.1-22-49.1-49V8.4c0-27.1,22-49.1,49.1-49.1h266.3"/>
		<line class="st8" x1="17.2" y1="354.7" x2="80.5" y2="217.7"/>
		<line class="st8" x1="68.9" y1="354.7" x2="132.2" y2="217.7"/>
		<g>
			<g>
				<line class="st9" x1="49.2" y1="341.7" x2="57.6" y2="323.6"/>
				<line class="st10" x1="60.1" y1="318.2" x2="66.3" y2="304.9"/>
				<line class="st11" x1="70" y1="296.9" x2="88.5" y2="256.9"/>
				<line class="st9" x1="92.2" y1="248.9" x2="100.6" y2="230.7"/>
			</g>
		</g>
		<line class="st8" x1="17.2" y1="709.6" x2="80.5" y2="572.6"/>
		<line class="st8" x1="68.9" y1="709.6" x2="132.2" y2="572.6"/>
		<g>
			<g>
				<line class="st9" x1="49.2" y1="696.6" x2="57.6" y2="678.4"/>
				<line class="st10" x1="60.1" y1="673.1" x2="66.3" y2="659.7"/>
				<line class="st11" x1="70" y1="651.7" x2="88.5" y2="611.7"/>
				<line class="st9" x1="92.2" y1="603.7" x2="100.6" y2="585.6"/>
			</g>
		</g>
		<path class="st0" d="M234.3-40.7v860.2H-32.1c-27.1,0-49.1-22-49.1-49V8.4c0-27.1,22-49.1,49.1-49.1H234.3z M220.3,805.5V-26.7
			H-32.1c-19.3,0-35.1,15.7-35.1,35.1v762.1c0,19.3,15.7,35,35.1,35H220.3z"/>
		<path class="st1" d="M220.3-26.7v832.2H-32.1c-19.3,0-35.1-15.7-35.1-35V8.4c0-19.3,15.7-35.1,35.1-35.1H220.3z M174.5,717.2V565
			c0-17.8-14.4-32.2-32.2-32.2H7.1c-17.8,0-32.2,14.4-32.2,32.2v152.2c0,17.8,14.4,32.2,32.2,32.2h135.2
			C160.1,749.4,174.5,735,174.5,717.2z M174.5,455.9V72.2c0-17.8-14.4-32.2-32.2-32.2H7.1c-17.8,0-32.2,14.4-32.2,32.2v383.7
			c0,17.8,14.4,32.2,32.2,32.2h135.2C160.1,488.1,174.5,473.7,174.5,455.9z"/>
		<path class="st2" d="M174.5,565v152.2c0,17.8-14.4,32.2-32.2,32.2H7.1c-17.8,0-32.2-14.4-32.2-32.2V565
			c0-17.8,14.4-32.2,32.2-32.2h135.2C160.1,532.7,174.5,547.2,174.5,565z M160.5,717.2V565c0-10-8.2-18.2-18.2-18.2H7.1
			c-10,0-18.2,8.2-18.2,18.2v152.2c0,10,8.2,18.2,18.2,18.2h135.2C152.4,735.4,160.5,727.2,160.5,717.2z"/>
		<path class="st2" d="M174.5,72.2v383.7c0,17.8-14.4,32.2-32.2,32.2H7.1c-17.8,0-32.2-14.4-32.2-32.2V72.2
			C-25.1,54.4-10.7,40,7.1,40h135.2C160.1,40,174.5,54.4,174.5,72.2z M160.5,455.9V72.2c0-10-8.2-18.2-18.2-18.2H7.1
			c-10,0-18.2,8.2-18.2,18.2v383.7c0,10,8.2,18.2,18.2,18.2h135.2C152.4,474.1,160.5,466,160.5,455.9z"/>
		<path class="st0" d="M160.5,565v152.2c0,10-8.2,18.2-18.2,18.2H7.1c-10,0-18.2-8.2-18.2-18.2V565c0-10,8.2-18.2,18.2-18.2h135.2
			C152.4,546.7,160.5,554.9,160.5,565z"/>
		<path class="st0" d="M160.5,72.2v383.7c0,10-8.2,18.2-18.2,18.2H7.1c-10,0-18.2-8.2-18.2-18.2V72.2c0-10,8.2-18.2,18.2-18.2h135.2
			C152.4,54,160.5,62.2,160.5,72.2z"/>
		<path class="st3" d="M142.3,749.4H7.1c-17.8,0-32.2-14.4-32.2-32.2V565c0-4.5,0.9-8.8,2.6-12.6c-8.4,5.8-13.8,15.5-13.8,26.5V731
			c0,17.8,14.4,32.2,32.2,32.2H131c13.3,0,24.7-8.1,29.7-19.6C155.5,747.3,149.2,749.4,142.3,749.4z M142.3,488.1H7.1
			c-17.8,0-32.2-14.4-32.2-32.2V72.2c0-4.5,0.9-8.8,2.6-12.6c-8.4,5.8-13.8,15.5-13.8,26.5v383.7c0,17.8,14.4,32.2,32.2,32.2H131
			c13.3,0,24.7-8.1,29.7-19.6C155.5,486,149.2,488.1,142.3,488.1z M-32.1-26.7c-14.2,0-26.4,8.4-31.9,20.6c5.8-4.3,13-6.8,20.7-6.8
			H209v818.3h11.3V-26.7H-32.1z M142.3,488.1H7.1c-17.8,0-32.2-14.4-32.2-32.2V72.2c0-4.5,0.9-8.8,2.6-12.6
			c-8.4,5.8-13.8,15.5-13.8,26.5v383.7c0,17.8,14.4,32.2,32.2,32.2H131c13.3,0,24.7-8.1,29.7-19.6
			C155.5,486,149.2,488.1,142.3,488.1z M142.3,749.4H7.1c-17.8,0-32.2-14.4-32.2-32.2V565c0-4.5,0.9-8.8,2.6-12.6
			c-8.4,5.8-13.8,15.5-13.8,26.5V731c0,17.8,14.4,32.2,32.2,32.2H131c13.3,0,24.7-8.1,29.7-19.6
			C155.5,747.3,149.2,749.4,142.3,749.4z"/>
		<path class="st5" d="M174.5,455.9V72.2c0-17.8-14.4-32.2-32.2-32.2H7.1c-17.8,0-32.2,14.4-32.2,32.2v383.7
			c0,17.8,14.4,32.2,32.2,32.2h135.2C160.1,488.1,174.5,473.7,174.5,455.9z"/>
		<path class="st6" d="M160.5,455.9c0,10-8.2,18.2-18.2,18.2H7.1c-10,0-18.2-8.2-18.2-18.2V72.2c0-10,8.2-18.2,18.2-18.2h135.2
			c10.1,0,18.2,8.2,18.2,18.2V455.9z"/>
		<path class="st5" d="M174.5,717.2V565c0-17.8-14.4-32.2-32.2-32.2H7.1c-17.8,0-32.2,14.4-32.2,32.2v152.2
			c0,17.8,14.4,32.2,32.2,32.2h135.2C160.1,749.4,174.5,735,174.5,717.2z"/>
		<path class="st6" d="M160.5,717.2c0,10-8.2,18.2-18.2,18.2H7.1c-10,0-18.2-8.2-18.2-18.2V565c0-10,8.2-18.2,18.2-18.2h135.2
			c10.1,0,18.2,8.2,18.2,18.2V717.2z"/>
		<path class="st7" d="M220.3-26.7v832.2H-32.1c-19.3,0-35.1-15.7-35.1-35V8.4c0-19.3,15.7-35.1,35.1-35.1H220.3z"/>
		<path class="st4" d="M-32.1,819.5c-27.1,0-49.1-22-49.1-49V8.4c0-27.1,22-49.1,49.1-49.1h266.3v860.2H-32.1"/>
		<line class="st8" x1="17.2" y1="354.7" x2="80.5" y2="217.7"/>
		<line class="st8" x1="68.9" y1="354.7" x2="132.2" y2="217.7"/>
		<g>
			<g>
				<line class="st9" x1="49.2" y1="341.7" x2="57.6" y2="323.6"/>
				<line class="st10" x1="60.1" y1="318.2" x2="66.3" y2="304.9"/>
				<line class="st11" x1="70" y1="296.9" x2="88.5" y2="256.9"/>
				<line class="st9" x1="92.2" y1="248.9" x2="100.6" y2="230.7"/>
			</g>
		</g>
		<line class="st8" x1="17.2" y1="709.6" x2="80.5" y2="572.6"/>
		<line class="st8" x1="68.9" y1="709.6" x2="132.2" y2="572.6"/>
		<g>
			<g>
				<line class="st9" x1="49.2" y1="696.6" x2="57.6" y2="678.4"/>
				<line class="st10" x1="60.1" y1="673.1" x2="66.3" y2="659.7"/>
				<line class="st11" x1="70" y1="651.7" x2="88.5" y2="611.7"/>
				<line class="st9" x1="92.2" y1="603.7" x2="100.6" y2="585.6"/>
			</g>
		</g>
	</g>
</g>
<g id="Vagon">
	<path class="st12" d="M-93.1,3.5v699.2H-876V-75.8h2220.5v778.5H561.7V3.5c0-31.1-25.2-56.2-56.2-56.2H-36.9
		C-67.9-52.7-93.1-27.5-93.1,3.5z M769.8,374.3c0,33.6,27.2,60.8,60.8,60.8h407.3c33.6,0,60.8-27.2,60.8-60.8V83.8
		c0-33.6-27.2-60.8-60.8-60.8H830.5c-33.6,0-60.8,27.2-60.8,60.8V374.3z M-830.1,374.3c0,33.6,27.2,60.8,60.8,60.8H-362
		c33.6,0,60.8-27.2,60.8-60.8V83.8c0-33.6-27.2-60.8-60.8-60.8h-407.3c-33.6,0-60.8,27.2-60.8,60.8
		C-830.1,83.8-830.1,374.3-830.1,374.3z"/>
	<path class="st13" d="M-93.1,775.2c0,29.5,22.7,53.7,51.6,56.1V845h551.7v-13.7c28.9-2.4,51.6-26.6,51.6-56.1v-72.5h782.9V888H-876
		V702.7h782.9V775.2z"/>
	<polygon class="st16" points="-876,-75.8 -876,702.7 -876,888 1344.5,888 1344.5,702.7 1344.5,-75.8 1344.5,-192 -876,-192 	"/>
	<path class="st12" d="M-93.1,3.5v699.2H-876V-75.8h2220.5v778.5H561.7V3.5c0-31.1-25.2-56.2-56.2-56.2H-36.9
		C-67.9-52.7-93.1-27.5-93.1,3.5z M769.8,374.3c0,33.6,27.2,60.8,60.8,60.8h407.3c33.6,0,60.8-27.2,60.8-60.8V83.8
		c0-33.6-27.2-60.8-60.8-60.8H830.5c-33.6,0-60.8,27.2-60.8,60.8V374.3z M-830.1,374.3c0,33.6,27.2,60.8,60.8,60.8H-362
		c33.6,0,60.8-27.2,60.8-60.8V83.8c0-33.6-27.2-60.8-60.8-60.8h-407.3c-33.6,0-60.8,27.2-60.8,60.8
		C-830.1,83.8-830.1,374.3-830.1,374.3z"/>
	<path class="st13" d="M-93.1,775.2c0,29.5,22.7,53.7,51.6,56.1V845h551.7v-13.7c28.9-2.4,51.6-26.6,51.6-56.1v-72.5h782.9V888H-876
		V702.7h782.9V775.2z"/>
	<polygon class="st16" points="-876,-75.8 -876,702.7 -876,888 1344.5,888 1344.5,702.7 1344.5,-75.8 1344.5,-192 -876,-192 	"/>
	<path class="st0" d="M-81.1,770.4c0,27.1,22,49,49.1,49h266.3h266.3c27.1,0,49.1-22,49.1-49V8.4c0-27.1-22-49.1-49.1-49.1H234.3
		H-32.1c-27.1,0-49.1,22-49.1,49.1V770.4z M561.7,3.5v699.2v72.5c0,29.5-22.7,53.7-51.6,56.1V845H-41.6v-13.7
		c-28.9-2.4-51.6-26.6-51.6-56.1v-72.5V3.5c0-31.1,25.2-56.2,56.2-56.2h542.3C536.5-52.7,561.7-27.5,561.7,3.5z"/>
	<path class="st0" d="M-81.1,770.4c0,27.1,22,49,49.1,49h266.3h266.3c27.1,0,49.1-22,49.1-49V8.4c0-27.1-22-49.1-49.1-49.1H234.3
		H-32.1c-27.1,0-49.1,22-49.1,49.1V770.4z M561.7,3.5v699.2v72.5c0,29.5-22.7,53.7-51.6,56.1V845H-41.6v-13.7
		c-28.9-2.4-51.6-26.6-51.6-56.1v-72.5V3.5c0-31.1,25.2-56.2,56.2-56.2h542.3C536.5-52.7,561.7-27.5,561.7,3.5z"/>
</g>
</svg>
