<?xml version="1.0" encoding="utf-8"?>
<!-- Generator: Adobe Illustrator 27.8.1, SVG Export Plug-In . SVG Version: 6.00 Build 0)  -->
<svg version="1.1" id="Capa_1" xmlns="http://www.w3.org/2000/svg" xmlns:xlink="http://www.w3.org/1999/xlink" x="0px" y="0px"
	 viewBox="0 0 586.4 1045.2" style="enable-background:new 0 0 586.4 1045.2;" xml:space="preserve">
<style type="text/css">
	.st0{fill:#2C2A26;}
	.st1{fill:#41403C;}
	.st2{fill:#575552;}
	.st3{fill:#373531;}
	.st4{fill:none;stroke:#D8D9CF;stroke-width:4;stroke-miterlimit:10;}
	.st5{fill:none;stroke:#2C2A26;stroke-width:6;stroke-miterlimit:10;}
	.st6{fill:none;}
	.st7{fill:none;stroke:#2C2A26;stroke-width:4;stroke-miterlimit:10;}
	.st8{fill:none;stroke:#D8D9CF;stroke-width:7;stroke-linecap:round;stroke-miterlimit:10;}
	.st9{fill:none;stroke:#D8D9CF;stroke-width:4;stroke-linecap:round;stroke-miterlimit:10;}
	.st10{fill:none;stroke:#D8D9CF;stroke-width:4;stroke-linecap:round;stroke-miterlimit:10;stroke-dasharray:5.88,17.64;}
	
		.st11{fill:none;stroke:#D8D9CF;stroke-width:4;stroke-linecap:round;stroke-miterlimit:10;stroke-dasharray:23.5199,5.88,5.88,17.64;}
	.st12{fill:#A6CD6D;}
	.st13{fill:#D8D9CF;}
	.st14{fill:#6B8B84;}
	.st15{fill:#89A29D;}
	.st16{fill:none;stroke:#2C2A26;stroke-width:5;stroke-miterlimit:10;}
	.st17{fill:#41403C;stroke:#2C2A26;stroke-width:4;stroke-miterlimit:10;}
	.st18{fill:#817F7D;}
	.st19{fill:none;stroke:#D8D9CF;stroke-width:4;stroke-linecap:round;stroke-miterlimit:10;stroke-dasharray:8.5225,25.5674;}
	
		.st20{fill:none;stroke:#D8D9CF;stroke-width:4;stroke-linecap:round;stroke-miterlimit:10;stroke-dasharray:34.0899,8.5225,8.5225,25.5674;}
</style>
<g id="Puerta-Izq">
	<g>
		<path class="st0" d="M296.3,144.3v860.2H29.9c-27.1,0-49.1-22-49.1-49V193.4c0-27.1,22-49.1,49.1-49.1H296.3z M282.3,990.5V158.3
			H29.9c-19.3,0-35.1,15.7-35.1,35.1v762.1c0,19.3,15.7,35,35.1,35H282.3z"/>
		<path class="st1" d="M282.3,158.3v832.2H29.9c-19.3,0-35.1-15.7-35.1-35V193.4c0-19.3,15.7-35.1,35.1-35.1H282.3z M236.5,902.2
			V750c0-17.8-14.4-32.2-32.2-32.2H69.1c-17.8,0-32.2,14.4-32.2,32.2v152.2c0,17.8,14.4,32.2,32.2,32.2h135.2
			C222.1,934.4,236.5,920,236.5,902.2z M236.5,641V257.3c0-17.8-14.4-32.2-32.2-32.2H69.1c-17.8,0-32.2,14.4-32.2,32.2V641
			c0,17.8,14.4,32.2,32.2,32.2h135.2C222.1,673.2,236.5,658.8,236.5,641z"/>
		<path class="st2" d="M236.5,750v152.2c0,17.8-14.4,32.2-32.2,32.2H69.1c-17.8,0-32.2-14.4-32.2-32.2V750
			c0-17.8,14.4-32.2,32.2-32.2h135.2C222.1,717.8,236.5,732.2,236.5,750z M222.5,902.2V750c0-10-8.2-18.2-18.2-18.2H69.1
			c-10,0-18.2,8.2-18.2,18.2v152.2c0,10,8.2,18.2,18.2,18.2h135.2C214.4,920.4,222.5,912.2,222.5,902.2z"/>
		<path class="st2" d="M236.5,257.3V641c0,17.8-14.4,32.2-32.2,32.2H69.1c-17.8,0-32.2-14.4-32.2-32.2V257.3
			c0-17.8,14.4-32.2,32.2-32.2h135.2C222.1,225,236.5,239.5,236.5,257.3z M222.5,641V257.3c0-10.1-8.2-18.2-18.2-18.2H69.1
			c-10,0-18.2,8.2-18.2,18.2V641c0,10,8.2,18.2,18.2,18.2h135.2C214.4,659.2,222.5,651,222.5,641z"/>
		<path class="st0" d="M222.5,750v152.2c0,10-8.2,18.2-18.2,18.2H69.1c-10,0-18.2-8.2-18.2-18.2V750c0-10,8.2-18.2,18.2-18.2h135.2
			C214.4,731.8,222.5,740,222.5,750z"/>
		<path class="st0" d="M222.5,257.3V641c0,10-8.2,18.2-18.2,18.2H69.1c-10,0-18.2-8.2-18.2-18.2V257.3c0-10.1,8.2-18.2,18.2-18.2
			h135.2C214.4,239,222.5,247.2,222.5,257.3z"/>
		<path class="st3" d="M204.3,934.4H69.1c-17.8,0-32.2-14.4-32.2-32.2V750c0-4.5,0.9-8.8,2.6-12.6c-8.4,5.8-13.8,15.5-13.8,26.5V916
			c0,17.8,14.4,32.2,32.2,32.2H193c13.3,0,24.7-8.1,29.7-19.6C217.5,932.3,211.2,934.4,204.3,934.4z M204.3,673.2H69.1
			c-17.8,0-32.2-14.4-32.2-32.2V257.3c0-4.5,0.9-8.8,2.6-12.6c-8.4,5.8-13.8,15.5-13.8,26.5v383.7c0,17.8,14.4,32.2,32.2,32.2H193
			c13.3,0,24.7-8.1,29.7-19.6C217.5,671.1,211.2,673.2,204.3,673.2z M29.9,158.3c-14.2,0-26.4,8.4-31.9,20.6
			c5.8-4.2,13-6.8,20.7-6.8H271v818.3h11.3V158.3H29.9z M204.3,673.2H69.1c-17.8,0-32.2-14.4-32.2-32.2V257.3
			c0-4.5,0.9-8.8,2.6-12.6c-8.4,5.8-13.8,15.5-13.8,26.5v383.7c0,17.8,14.4,32.2,32.2,32.2H193c13.3,0,24.7-8.1,29.7-19.6
			C217.5,671.1,211.2,673.2,204.3,673.2z M204.3,934.4H69.1c-17.8,0-32.2-14.4-32.2-32.2V750c0-4.5,0.9-8.8,2.6-12.6
			c-8.4,5.8-13.8,15.5-13.8,26.5V916c0,17.8,14.4,32.2,32.2,32.2H193c13.3,0,24.7-8.1,29.7-19.6
			C217.5,932.3,211.2,934.4,204.3,934.4z"/>
		<line class="st4" x1="296.3" y1="1004.5" x2="29.9" y2="1004.5"/>
		<path class="st5" d="M236.5,641V257.3c0-17.8-14.4-32.2-32.2-32.2H69.1c-17.8,0-32.2,14.4-32.2,32.2V641
			c0,17.8,14.4,32.2,32.2,32.2h135.2C222.1,673.2,236.5,658.8,236.5,641z"/>
		<path class="st6" d="M222.5,641c0,10-8.2,18.2-18.2,18.2H69.1c-10,0-18.2-8.2-18.2-18.2V257.3c0-10.1,8.2-18.2,18.2-18.2h135.2
			c10.1,0,18.2,8.2,18.2,18.2V641z"/>
		<path class="st5" d="M236.5,902.2V750c0-17.8-14.4-32.2-32.2-32.2H69.1c-17.8,0-32.2,14.4-32.2,32.2v152.2
			c0,17.8,14.4,32.2,32.2,32.2h135.2C222.1,934.4,236.5,920,236.5,902.2z"/>
		<path class="st6" d="M222.5,902.2c0,10-8.2,18.2-18.2,18.2H69.1c-10,0-18.2-8.2-18.2-18.2V750c0-10,8.2-18.2,18.2-18.2h135.2
			c10.1,0,18.2,8.2,18.2,18.2V902.2z"/>
		<path class="st7" d="M282.3,158.3v832.2H29.9c-19.3,0-35.1-15.7-35.1-35V193.4c0-19.3,15.7-35.1,35.1-35.1H282.3z"/>
		<path class="st4" d="M29.9,1004.5c-27.1,0-49.1-22-49.1-49V193.4c0-27.1,22-49.1,49.1-49.1h266.3"/>
		<line class="st8" x1="79.2" y1="539.8" x2="142.5" y2="402.8"/>
		<line class="st8" x1="130.9" y1="539.8" x2="194.2" y2="402.8"/>
		<g>
			<g>
				<line class="st9" x1="111.2" y1="526.8" x2="119.6" y2="508.6"/>
				<line class="st10" x1="122.1" y1="503.3" x2="128.3" y2="489.9"/>
				<line class="st11" x1="132" y1="481.9" x2="150.5" y2="441.9"/>
				<line class="st9" x1="154.2" y1="433.9" x2="162.6" y2="415.7"/>
			</g>
		</g>
		<line class="st8" x1="79.2" y1="894.6" x2="142.5" y2="757.6"/>
		<line class="st8" x1="130.9" y1="894.6" x2="194.2" y2="757.6"/>
		<g>
			<g>
				<line class="st9" x1="111.2" y1="881.6" x2="119.6" y2="863.5"/>
				<line class="st10" x1="122.1" y1="858.1" x2="128.3" y2="844.8"/>
				<line class="st11" x1="132" y1="836.8" x2="150.5" y2="796.8"/>
				<line class="st9" x1="154.2" y1="788.7" x2="162.6" y2="770.6"/>
			</g>
		</g>
		<path class="st0" d="M296.3,144.3v860.2H29.9c-27.1,0-49.1-22-49.1-49V193.4c0-27.1,22-49.1,49.1-49.1H296.3z M282.3,990.5V158.3
			H29.9c-19.3,0-35.1,15.7-35.1,35.1v762.1c0,19.3,15.7,35,35.1,35H282.3z"/>
		<path class="st1" d="M282.3,158.3v832.2H29.9c-19.3,0-35.1-15.7-35.1-35V193.4c0-19.3,15.7-35.1,35.1-35.1H282.3z M236.5,902.2
			V750c0-17.8-14.4-32.2-32.2-32.2H69.1c-17.8,0-32.2,14.4-32.2,32.2v152.2c0,17.8,14.4,32.2,32.2,32.2h135.2
			C222.1,934.4,236.5,920,236.5,902.2z M236.5,641V257.3c0-17.8-14.4-32.2-32.2-32.2H69.1c-17.8,0-32.2,14.4-32.2,32.2V641
			c0,17.8,14.4,32.2,32.2,32.2h135.2C222.1,673.2,236.5,658.8,236.5,641z"/>
		<path class="st2" d="M236.5,750v152.2c0,17.8-14.4,32.2-32.2,32.2H69.1c-17.8,0-32.2-14.4-32.2-32.2V750
			c0-17.8,14.4-32.2,32.2-32.2h135.2C222.1,717.8,236.5,732.2,236.5,750z M222.5,902.2V750c0-10-8.2-18.2-18.2-18.2H69.1
			c-10,0-18.2,8.2-18.2,18.2v152.2c0,10,8.2,18.2,18.2,18.2h135.2C214.4,920.4,222.5,912.2,222.5,902.2z"/>
		<path class="st2" d="M236.5,257.3V641c0,17.8-14.4,32.2-32.2,32.2H69.1c-17.8,0-32.2-14.4-32.2-32.2V257.3
			c0-17.8,14.4-32.2,32.2-32.2h135.2C222.1,225,236.5,239.5,236.5,257.3z M222.5,641V257.3c0-10.1-8.2-18.2-18.2-18.2H69.1
			c-10,0-18.2,8.2-18.2,18.2V641c0,10,8.2,18.2,18.2,18.2h135.2C214.4,659.2,222.5,651,222.5,641z"/>
		<path class="st0" d="M222.5,750v152.2c0,10-8.2,18.2-18.2,18.2H69.1c-10,0-18.2-8.2-18.2-18.2V750c0-10,8.2-18.2,18.2-18.2h135.2
			C214.4,731.8,222.5,740,222.5,750z"/>
		<path class="st0" d="M222.5,257.3V641c0,10-8.2,18.2-18.2,18.2H69.1c-10,0-18.2-8.2-18.2-18.2V257.3c0-10.1,8.2-18.2,18.2-18.2
			h135.2C214.4,239,222.5,247.2,222.5,257.3z"/>
		<path class="st3" d="M204.3,934.4H69.1c-17.8,0-32.2-14.4-32.2-32.2V750c0-4.5,0.9-8.8,2.6-12.6c-8.4,5.8-13.8,15.5-13.8,26.5V916
			c0,17.8,14.4,32.2,32.2,32.2H193c13.3,0,24.7-8.1,29.7-19.6C217.5,932.3,211.2,934.4,204.3,934.4z M204.3,673.2H69.1
			c-17.8,0-32.2-14.4-32.2-32.2V257.3c0-4.5,0.9-8.8,2.6-12.6c-8.4,5.8-13.8,15.5-13.8,26.5v383.7c0,17.8,14.4,32.2,32.2,32.2H193
			c13.3,0,24.7-8.1,29.7-19.6C217.5,671.1,211.2,673.2,204.3,673.2z M29.9,158.3c-14.2,0-26.4,8.4-31.9,20.6
			c5.8-4.2,13-6.8,20.7-6.8H271v818.3h11.3V158.3H29.9z M204.3,673.2H69.1c-17.8,0-32.2-14.4-32.2-32.2V257.3
			c0-4.5,0.9-8.8,2.6-12.6c-8.4,5.8-13.8,15.5-13.8,26.5v383.7c0,17.8,14.4,32.2,32.2,32.2H193c13.3,0,24.7-8.1,29.7-19.6
			C217.5,671.1,211.2,673.2,204.3,673.2z M204.3,934.4H69.1c-17.8,0-32.2-14.4-32.2-32.2V750c0-4.5,0.9-8.8,2.6-12.6
			c-8.4,5.8-13.8,15.5-13.8,26.5V916c0,17.8,14.4,32.2,32.2,32.2H193c13.3,0,24.7-8.1,29.7-19.6
			C217.5,932.3,211.2,934.4,204.3,934.4z"/>
		<path class="st5" d="M236.5,641V257.3c0-17.8-14.4-32.2-32.2-32.2H69.1c-17.8,0-32.2,14.4-32.2,32.2V641
			c0,17.8,14.4,32.2,32.2,32.2h135.2C222.1,673.2,236.5,658.8,236.5,641z"/>
		<path class="st6" d="M222.5,641c0,10-8.2,18.2-18.2,18.2H69.1c-10,0-18.2-8.2-18.2-18.2V257.3c0-10.1,8.2-18.2,18.2-18.2h135.2
			c10.1,0,18.2,8.2,18.2,18.2V641z"/>
		<path class="st5" d="M236.5,902.2V750c0-17.8-14.4-32.2-32.2-32.2H69.1c-17.8,0-32.2,14.4-32.2,32.2v152.2
			c0,17.8,14.4,32.2,32.2,32.2h135.2C222.1,934.4,236.5,920,236.5,902.2z"/>
		<path class="st6" d="M222.5,902.2c0,10-8.2,18.2-18.2,18.2H69.1c-10,0-18.2-8.2-18.2-18.2V750c0-10,8.2-18.2,18.2-18.2h135.2
			c10.1,0,18.2,8.2,18.2,18.2V902.2z"/>
		<path class="st7" d="M282.3,158.3v832.2H29.9c-19.3,0-35.1-15.7-35.1-35V193.4c0-19.3,15.7-35.1,35.1-35.1H282.3z"/>
		<path class="st4" d="M29.9,1004.5c-27.1,0-49.1-22-49.1-49V193.4c0-27.1,22-49.1,49.1-49.1h266.3v860.2H29.9"/>
		<line class="st8" x1="79.2" y1="539.8" x2="142.5" y2="402.8"/>
		<line class="st8" x1="130.9" y1="539.8" x2="194.2" y2="402.8"/>
		<g>
			<g>
				<line class="st9" x1="111.2" y1="526.8" x2="119.6" y2="508.6"/>
				<line class="st10" x1="122.1" y1="503.3" x2="128.3" y2="489.9"/>
				<line class="st11" x1="132" y1="481.9" x2="150.5" y2="441.9"/>
				<line class="st9" x1="154.2" y1="433.9" x2="162.6" y2="415.7"/>
			</g>
		</g>
		<line class="st8" x1="79.2" y1="894.6" x2="142.5" y2="757.6"/>
		<line class="st8" x1="130.9" y1="894.6" x2="194.2" y2="757.6"/>
		<g>
			<g>
				<line class="st9" x1="111.2" y1="881.6" x2="119.6" y2="863.5"/>
				<line class="st10" x1="122.1" y1="858.1" x2="128.3" y2="844.8"/>
				<line class="st11" x1="132" y1="836.8" x2="150.5" y2="796.8"/>
				<line class="st9" x1="154.2" y1="788.7" x2="162.6" y2="770.6"/>
			</g>
		</g>
	</g>
</g>
<g id="Puerta-Der">
	<g>
		<path class="st0" d="M611.7,193.4v762.1c0,27.1-22,49-49.1,49H296.3V144.3h266.3C589.7,144.3,611.7,166.3,611.7,193.4z
			 M597.7,955.5V193.4c0-19.3-15.7-35.1-35.1-35.1H310.3v832.2h252.3C581.9,990.5,597.7,974.8,597.7,955.5z"/>
		<path class="st1" d="M597.7,193.4v762.1c0,19.3-15.7,35-35.1,35H310.3V158.3h252.3C581.9,158.3,597.7,174.1,597.7,193.4z
			 M555.7,902.2V750c0-17.8-14.4-32.2-32.2-32.2H388.2c-17.8,0-32.2,14.4-32.2,32.2v152.2c0,17.8,14.4,32.2,32.2,32.2h135.2
			C541.2,934.4,555.7,920,555.7,902.2z M555.7,641V257.3c0-17.8-14.4-32.2-32.2-32.2H388.2c-17.8,0-32.2,14.4-32.2,32.2V641
			c0,17.8,14.4,32.2,32.2,32.2h135.2C541.2,673.2,555.7,658.8,555.7,641z"/>
		<path class="st2" d="M555.7,750v152.2c0,17.8-14.4,32.2-32.2,32.2H388.2c-17.8,0-32.2-14.4-32.2-32.2V750
			c0-17.8,14.4-32.2,32.2-32.2h135.2C541.2,717.8,555.7,732.2,555.7,750z M541.7,902.2V750c0-10.1-8.2-18.2-18.2-18.2H388.2
			c-10.1,0-18.2,8.2-18.2,18.2v152.2c0,10.1,8.2,18.2,18.2,18.2h135.2C533.5,920.4,541.7,912.3,541.7,902.2z"/>
		<path class="st2" d="M555.7,257.3V641c0,17.8-14.4,32.2-32.2,32.2H388.2c-17.8,0-32.2-14.4-32.2-32.2V257.3
			c0-17.8,14.4-32.2,32.2-32.2h135.2C541.2,225,555.7,239.5,555.7,257.3z M541.7,641V257.3c0-10.1-8.2-18.2-18.2-18.2H388.2
			c-10.1,0-18.2,8.1-18.2,18.2V641c0,10.1,8.2,18.2,18.2,18.2h135.2C533.5,659.2,541.7,651,541.7,641z"/>
		<path class="st0" d="M541.7,750v152.2c0,10.1-8.2,18.2-18.2,18.2H388.2c-10.1,0-18.2-8.2-18.2-18.2V750c0-10.1,8.2-18.2,18.2-18.2
			h135.2C533.5,731.8,541.7,739.9,541.7,750z"/>
		<path class="st0" d="M541.7,257.3V641c0,10.1-8.2,18.2-18.2,18.2H388.2c-10.1,0-18.2-8.2-18.2-18.2V257.3
			c0-10.1,8.2-18.2,18.2-18.2h135.2C533.5,239,541.7,247.2,541.7,257.3z"/>
		<path class="st3" d="M562.6,158.3H310.3v13.8h241.1c19.3,0,35.1,15.7,35.1,35.1v762.1c0,5.2-1.1,10.1-3.1,14.5
			c8.7-6.4,14.4-16.7,14.4-28.3V193.4C597.7,174.1,581.9,158.3,562.6,158.3z M388.2,673.2c-17.8,0-32.2-14.4-32.2-32.2V257.3
			c0-4.5,0.9-8.8,2.6-12.6c-8.4,5.8-13.8,15.5-13.8,26.5v383.7c0,17.8,14.4,32.2,32.2,32.2h135.2c13.3,0,24.7-8.1,29.7-19.6
			c-5.2,3.6-11.6,5.8-18.4,5.8H388.2z M388.2,934.4c-17.8,0-32.2-14.4-32.2-32.2V750c0-4.5,0.9-8.8,2.6-12.6
			c-8.4,5.8-13.8,15.5-13.8,26.5V916c0,17.8,14.4,32.2,32.2,32.2h135.2c13.3,0,24.7-8.1,29.7-19.6c-5.2,3.6-11.6,5.8-18.4,5.8H388.2
			z"/>
		<line class="st4" x1="562.6" y1="1004.5" x2="296.3" y2="1004.5"/>
		<path class="st5" d="M555.7,641c0,17.8-14.4,32.2-32.2,32.2H388.2c-17.8,0-32.2-14.4-32.2-32.2V257.3c0-17.8,14.4-32.2,32.2-32.2
			h135.2c17.8,0,32.2,14.4,32.2,32.2V641z"/>
		<path class="st6" d="M541.7,257.3c0-10.1-8.2-18.2-18.2-18.2H388.2c-10.1,0-18.2,8.1-18.2,18.2V641c0,10.1,8.2,18.2,18.2,18.2
			h135.2c10.1,0,18.2-8.2,18.2-18.2V257.3z"/>
		<path class="st5" d="M555.7,902.2c0,17.8-14.4,32.2-32.2,32.2H388.2c-17.8,0-32.2-14.4-32.2-32.2V750c0-17.8,14.4-32.2,32.2-32.2
			h135.2c17.8,0,32.2,14.4,32.2,32.2V902.2z"/>
		<path class="st6" d="M541.7,750c0-10.1-8.2-18.2-18.2-18.2H388.2c-10.1,0-18.2,8.2-18.2,18.2v152.2c0,10.1,8.2,18.2,18.2,18.2
			h135.2c10.1,0,18.2-8.2,18.2-18.2V750z"/>
		<path class="st7" d="M597.7,955.5V193.4c0-19.3-15.7-35.1-35.1-35.1H310.3v832.2h252.3C581.9,990.5,597.7,974.8,597.7,955.5z"/>
		<path class="st4" d="M296.3,1004.5V144.3h266.3c27.1,0,49.1,22,49.1,49.1v762.1c0,27.1-22,49-49.1,49"/>
		<line class="st8" x1="398.3" y1="539.8" x2="461.7" y2="402.8"/>
		<line class="st8" x1="450" y1="539.8" x2="513.3" y2="402.8"/>
		<g>
			<g>
				<line class="st9" x1="430.3" y1="526.8" x2="438.7" y2="508.6"/>
				<line class="st10" x1="441.2" y1="503.3" x2="447.4" y2="489.9"/>
				<line class="st11" x1="451.1" y1="481.9" x2="469.6" y2="441.9"/>
				<line class="st9" x1="473.3" y1="433.9" x2="481.7" y2="415.7"/>
			</g>
		</g>
		<line class="st8" x1="398.3" y1="894.6" x2="461.7" y2="757.6"/>
		<line class="st8" x1="450" y1="894.6" x2="513.3" y2="757.6"/>
		<g>
			<g>
				<line class="st9" x1="430.3" y1="881.6" x2="438.7" y2="863.5"/>
				<line class="st10" x1="441.2" y1="858.1" x2="447.4" y2="844.8"/>
				<line class="st11" x1="451.1" y1="836.8" x2="469.6" y2="796.8"/>
				<line class="st9" x1="473.3" y1="788.7" x2="481.7" y2="770.6"/>
			</g>
		</g>
		<path class="st0" d="M611.7,193.4v762.1c0,27.1-22,49-49.1,49H296.3V144.3h266.3C589.7,144.3,611.7,166.3,611.7,193.4z
			 M597.7,955.5V193.4c0-19.3-15.7-35.1-35.1-35.1H310.3v832.2h252.3C581.9,990.5,597.7,974.8,597.7,955.5z"/>
		<path class="st1" d="M597.7,193.4v762.1c0,19.3-15.7,35-35.1,35H310.3V158.3h252.3C581.9,158.3,597.7,174.1,597.7,193.4z
			 M555.7,902.2V750c0-17.8-14.4-32.2-32.2-32.2H388.2c-17.8,0-32.2,14.4-32.2,32.2v152.2c0,17.8,14.4,32.2,32.2,32.2h135.2
			C541.2,934.4,555.7,920,555.7,902.2z M555.7,641V257.3c0-17.8-14.4-32.2-32.2-32.2H388.2c-17.8,0-32.2,14.4-32.2,32.2V641
			c0,17.8,14.4,32.2,32.2,32.2h135.2C541.2,673.2,555.7,658.8,555.7,641z"/>
		<path class="st2" d="M555.7,750v152.2c0,17.8-14.4,32.2-32.2,32.2H388.2c-17.8,0-32.2-14.4-32.2-32.2V750
			c0-17.8,14.4-32.2,32.2-32.2h135.2C541.2,717.8,555.7,732.2,555.7,750z M541.7,902.2V750c0-10.1-8.2-18.2-18.2-18.2H388.2
			c-10.1,0-18.2,8.2-18.2,18.2v152.2c0,10.1,8.2,18.2,18.2,18.2h135.2C533.5,920.4,541.7,912.3,541.7,902.2z"/>
		<path class="st2" d="M555.7,257.3V641c0,17.8-14.4,32.2-32.2,32.2H388.2c-17.8,0-32.2-14.4-32.2-32.2V257.3
			c0-17.8,14.4-32.2,32.2-32.2h135.2C541.2,225,555.7,239.5,555.7,257.3z M541.7,641V257.3c0-10.1-8.2-18.2-18.2-18.2H388.2
			c-10.1,0-18.2,8.1-18.2,18.2V641c0,10.1,8.2,18.2,18.2,18.2h135.2C533.5,659.2,541.7,651,541.7,641z"/>
		<path class="st0" d="M541.7,750v152.2c0,10.1-8.2,18.2-18.2,18.2H388.2c-10.1,0-18.2-8.2-18.2-18.2V750c0-10.1,8.2-18.2,18.2-18.2
			h135.2C533.5,731.8,541.7,739.9,541.7,750z"/>
		<path class="st0" d="M541.7,257.3V641c0,10.1-8.2,18.2-18.2,18.2H388.2c-10.1,0-18.2-8.2-18.2-18.2V257.3
			c0-10.1,8.2-18.2,18.2-18.2h135.2C533.5,239,541.7,247.2,541.7,257.3z"/>
		<path class="st3" d="M562.6,158.3H310.3v13.8h241.1c19.3,0,35.1,15.7,35.1,35.1v762.1c0,5.2-1.1,10.1-3.1,14.5
			c8.7-6.4,14.4-16.7,14.4-28.3V193.4C597.7,174.1,581.9,158.3,562.6,158.3z M388.2,673.2c-17.8,0-32.2-14.4-32.2-32.2V257.3
			c0-4.5,0.9-8.8,2.6-12.6c-8.4,5.8-13.8,15.5-13.8,26.5v383.7c0,17.8,14.4,32.2,32.2,32.2h135.2c13.3,0,24.7-8.1,29.7-19.6
			c-5.2,3.6-11.6,5.8-18.4,5.8H388.2z M388.2,934.4c-17.8,0-32.2-14.4-32.2-32.2V750c0-4.5,0.9-8.8,2.6-12.6
			c-8.4,5.8-13.8,15.5-13.8,26.5V916c0,17.8,14.4,32.2,32.2,32.2h135.2c13.3,0,24.7-8.1,29.7-19.6c-5.2,3.6-11.6,5.8-18.4,5.8H388.2
			z"/>
		<line class="st4" x1="562.6" y1="1004.5" x2="296.3" y2="1004.5"/>
		<path class="st5" d="M555.7,641c0,17.8-14.4,32.2-32.2,32.2H388.2c-17.8,0-32.2-14.4-32.2-32.2V257.3c0-17.8,14.4-32.2,32.2-32.2
			h135.2c17.8,0,32.2,14.4,32.2,32.2V641z"/>
		<path class="st6" d="M541.7,257.3c0-10.1-8.2-18.2-18.2-18.2H388.2c-10.1,0-18.2,8.1-18.2,18.2V641c0,10.1,8.2,18.2,18.2,18.2
			h135.2c10.1,0,18.2-8.2,18.2-18.2V257.3z"/>
		<path class="st5" d="M555.7,902.2c0,17.8-14.4,32.2-32.2,32.2H388.2c-17.8,0-32.2-14.4-32.2-32.2V750c0-17.8,14.4-32.2,32.2-32.2
			h135.2c17.8,0,32.2,14.4,32.2,32.2V902.2z"/>
		<path class="st6" d="M541.7,750c0-10.1-8.2-18.2-18.2-18.2H388.2c-10.1,0-18.2,8.2-18.2,18.2v152.2c0,10.1,8.2,18.2,18.2,18.2
			h135.2c10.1,0,18.2-8.2,18.2-18.2V750z"/>
		<path class="st7" d="M597.7,955.5V193.4c0-19.3-15.7-35.1-35.1-35.1H310.3v832.2h252.3C581.9,990.5,597.7,974.8,597.7,955.5z"/>
		<path class="st4" d="M296.3,1004.5V144.3h266.3c27.1,0,49.1,22,49.1,49.1v762.1c0,27.1-22,49-49.1,49"/>
		<line class="st8" x1="398.3" y1="539.8" x2="461.7" y2="402.8"/>
		<line class="st8" x1="450" y1="539.8" x2="513.3" y2="402.8"/>
		<g>
			<g>
				<line class="st9" x1="430.3" y1="526.8" x2="438.7" y2="508.6"/>
				<line class="st10" x1="441.2" y1="503.3" x2="447.4" y2="489.9"/>
				<line class="st11" x1="451.1" y1="481.9" x2="469.6" y2="441.9"/>
				<line class="st9" x1="473.3" y1="433.9" x2="481.7" y2="415.7"/>
			</g>
		</g>
		<line class="st8" x1="398.3" y1="894.6" x2="461.7" y2="757.6"/>
		<line class="st8" x1="450" y1="894.6" x2="513.3" y2="757.6"/>
		<g>
			<g>
				<line class="st9" x1="430.3" y1="881.6" x2="438.7" y2="863.5"/>
				<line class="st10" x1="441.2" y1="858.1" x2="447.4" y2="844.8"/>
				<line class="st11" x1="451.1" y1="836.8" x2="469.6" y2="796.8"/>
				<line class="st9" x1="473.3" y1="788.7" x2="481.7" y2="770.6"/>
			</g>
		</g>
	</g>
</g>
<g id="Vagon">
	<path class="st12" d="M-31.1,188.6v699.2H-814V109.3h2220.5v778.5H623.7V188.6c0-31.1-25.2-56.2-56.2-56.2H25.1
		C-5.9,132.3-31.1,157.5-31.1,188.6z M831.8,559.3c0,33.6,27.2,60.8,60.8,60.8h407.3c33.6,0,60.8-27.2,60.8-60.8V268.8
		c0-33.6-27.2-60.8-60.8-60.8H892.5c-33.6,0-60.8,27.2-60.8,60.8V559.3z M-768.1,559.3c0,33.6,27.2,60.8,60.8,60.8H-300
		c33.6,0,60.8-27.2,60.8-60.8V268.8c0-33.6-27.2-60.8-60.8-60.8h-407.3c-33.6,0-60.8,27.2-60.8,60.8
		C-768.1,268.8-768.1,559.3-768.1,559.3z"/>
	<path class="st13" d="M-31.1,960.3c0,29.5,22.7,53.7,51.6,56.1v13.7h551.7v-13.7c28.9-2.4,51.6-26.6,51.6-56.1v-72.5h782.9V1073
		H-814V887.8h782.9V960.3z"/>
	<rect x="-814" y="-5" class="st14" width="2220.5" height="116.3"/>
	<rect x="-814" y="-7" class="st15" width="2220.5" height="28"/>
	<polygon class="st16" points="-814,109.3 -814,887.8 -814,1073 1406.5,1073 1406.5,887.8 1406.5,109.3 1406.5,-7 -814,-7 	"/>
	<line class="st16" x1="1406.5" y1="109.3" x2="-814" y2="109.3"/>
	<path class="st12" d="M-31.1,188.6v699.2H-814V109.3h2220.5v778.5H623.7V188.6c0-31.1-25.2-56.2-56.2-56.2H25.1
		C-5.9,132.3-31.1,157.5-31.1,188.6z M831.8,559.3c0,33.6,27.2,60.8,60.8,60.8h407.3c33.6,0,60.8-27.2,60.8-60.8V268.8
		c0-33.6-27.2-60.8-60.8-60.8H892.5c-33.6,0-60.8,27.2-60.8,60.8V559.3z M-768.1,559.3c0,33.6,27.2,60.8,60.8,60.8H-300
		c33.6,0,60.8-27.2,60.8-60.8V268.8c0-33.6-27.2-60.8-60.8-60.8h-407.3c-33.6,0-60.8,27.2-60.8,60.8
		C-768.1,268.8-768.1,559.3-768.1,559.3z"/>
	<path class="st13" d="M-31.1,960.3c0,29.5,22.7,53.7,51.6,56.1v13.7h551.7v-13.7c28.9-2.4,51.6-26.6,51.6-56.1v-72.5h782.9V1073
		H-814V887.8h782.9V960.3z"/>
	<rect x="-814" y="-5" class="st14" width="2220.5" height="116.3"/>
	<rect x="-814" y="-7" class="st15" width="2220.5" height="28"/>
	<polygon class="st16" points="-814,109.3 -814,887.8 -814,1073 1406.5,1073 1406.5,887.8 1406.5,109.3 1406.5,-7 -814,-7 	"/>
	<line class="st16" x1="1406.5" y1="109.3" x2="-814" y2="109.3"/>
	<path class="st0" d="M-19.1,955.5c0,27.1,22,49,49.1,49h266.3h266.3c27.1,0,49.1-22,49.1-49V193.4c0-27.1-22-49.1-49.1-49.1H296.3
		H29.9c-27.1,0-49.1,22-49.1,49.1V955.5z M623.7,188.6v699.2v72.5c0,29.5-22.7,53.7-51.6,56.1v13.7H20.4v-13.7
		c-28.9-2.4-51.6-26.6-51.6-56.1v-72.5V188.6c0-31.1,25.2-56.2,56.2-56.2h542.3C598.5,132.3,623.7,157.5,623.7,188.6z"/>
	<polyline class="st16" points="20.4,1012.6 20.4,1030 572.1,1030 572.1,1011.3 	"/>
	<path class="st0" d="M-19.1,955.5c0,27.1,22,49,49.1,49h266.3h266.3c27.1,0,49.1-22,49.1-49V193.4c0-27.1-22-49.1-49.1-49.1H296.3
		H29.9c-27.1,0-49.1,22-49.1,49.1V955.5z M623.7,188.6v699.2v72.5c0,29.5-22.7,53.7-51.6,56.1v13.7H20.4v-13.7
		c-28.9-2.4-51.6-26.6-51.6-56.1v-72.5V188.6c0-31.1,25.2-56.2,56.2-56.2h542.3C598.5,132.3,623.7,157.5,623.7,188.6z"/>
	<polyline class="st16" points="20.4,1012.6 20.4,1030 572.1,1030 572.1,1011.3 	"/>
</g>
</svg>
