<?xml version="1.0" encoding="utf-8"?>
<!-- Generator: Adobe Illustrator 27.8.1, SVG Export Plug-In . SVG Version: 6.00 Build 0)  -->
<svg version="1.1" id="Capa_1" xmlns="http://www.w3.org/2000/svg" xmlns:xlink="http://www.w3.org/1999/xlink" x="0px" y="0px"
	 viewBox="0 0 227.6 788" style="enable-background:new 0 0 227.6 788;" xml:space="preserve">
<style type="text/css">
	.st0{fill:#2C2A26;}
	.st1{fill:#41403C;}
	.st2{fill:#575552;}
	.st3{fill:#373531;}
	.st4{fill:none;stroke:#D8D9CF;stroke-width:4;stroke-miterlimit:10;}
	.st5{fill:none;stroke:#2C2A26;stroke-width:6;stroke-miterlimit:10;}
	.st6{fill:none;}
	.st7{fill:none;stroke:#2C2A26;stroke-width:4;stroke-miterlimit:10;}
	.st8{fill:none;stroke:#D8D9CF;stroke-width:7;stroke-linecap:round;stroke-miterlimit:10;}
	.st9{fill:none;stroke:#D8D9CF;stroke-width:4;stroke-linecap:round;stroke-miterlimit:10;}
	.st10{fill:none;stroke:#D8D9CF;stroke-width:4;stroke-linecap:round;stroke-miterlimit:10;stroke-dasharray:5.88,17.64;}
	
		.st11{fill:none;stroke:#D8D9CF;stroke-width:4;stroke-linecap:round;stroke-miterlimit:10;stroke-dasharray:23.5199,5.88,5.88,17.64;}
	.st12{fill:#A6CD6D;}
	.st13{fill:#D8D9CF;}
	.st14{fill:#6B8B84;}
	.st15{fill:#89A29D;}
	.st16{fill:none;stroke:#2C2A26;stroke-width:5;stroke-miterlimit:10;}
	.st17{fill:#41403C;stroke:#2C2A26;stroke-width:4;stroke-miterlimit:10;}
	.st18{fill:#817F7D;}
	.st19{fill:none;stroke:#D8D9CF;stroke-width:4;stroke-linecap:round;stroke-miterlimit:10;stroke-dasharray:8.5225,25.5674;}
	
		.st20{fill:none;stroke:#D8D9CF;stroke-width:4;stroke-linecap:round;stroke-miterlimit:10;stroke-dasharray:34.0899,8.5225,8.5225,25.5674;}
</style>
<g id="Puerta-Der">
	<g>
		<path class="st0" d="M312.5,8.4v762.1c0,27.1-22,49-49.1,49H-2.9V-40.7h266.3C290.6-40.7,312.5-18.7,312.5,8.4z M298.5,770.4V8.4
			c0-19.3-15.7-35.1-35.1-35.1H11.1v832.2h252.3C282.8,805.5,298.5,789.7,298.5,770.4z"/>
		<path class="st1" d="M298.5,8.4v762.1c0,19.3-15.7,35-35.1,35H11.1V-26.7h252.3C282.8-26.7,298.5-11,298.5,8.4z M256.5,717.2V565
			c0-17.8-14.4-32.2-32.2-32.2H89.1c-17.8,0-32.2,14.4-32.2,32.2v152.2c0,17.8,14.4,32.2,32.2,32.2h135.2
			C242.1,749.4,256.5,735,256.5,717.2z M256.5,455.9V72.2c0-17.8-14.4-32.2-32.2-32.2H89.1c-17.8,0-32.2,14.4-32.2,32.2v383.7
			c0,17.8,14.4,32.2,32.2,32.2h135.2C242.1,488.1,256.5,473.7,256.5,455.9z"/>
		<path class="st2" d="M256.5,565v152.2c0,17.8-14.4,32.2-32.2,32.2H89.1c-17.8,0-32.2-14.4-32.2-32.2V565
			c0-17.8,14.4-32.2,32.2-32.2h135.2C242.1,532.7,256.5,547.2,256.5,565z M242.5,717.2V565c0-10.1-8.2-18.2-18.2-18.2H89.1
			c-10.1,0-18.2,8.2-18.2,18.2v152.2c0,10.1,8.2,18.2,18.2,18.2h135.2C234.3,735.4,242.5,727.2,242.5,717.2z"/>
		<path class="st2" d="M256.5,72.2v383.7c0,17.8-14.4,32.2-32.2,32.2H89.1c-17.8,0-32.2-14.4-32.2-32.2V72.2
			C56.9,54.4,71.3,40,89.1,40h135.2C242.1,40,256.5,54.4,256.5,72.2z M242.5,455.9V72.2c0-10.1-8.2-18.2-18.2-18.2H89.1
			C79,54,70.9,62.2,70.9,72.2v383.7c0,10.1,8.2,18.2,18.2,18.2h135.2C234.3,474.1,242.5,466,242.5,455.9z"/>
		<path class="st0" d="M242.5,565v152.2c0,10.1-8.2,18.2-18.2,18.2H89.1c-10.1,0-18.2-8.2-18.2-18.2V565c0-10.1,8.2-18.2,18.2-18.2
			h135.2C234.3,546.7,242.5,554.9,242.5,565z"/>
		<path class="st0" d="M242.5,72.2v383.7c0,10.1-8.2,18.2-18.2,18.2H89.1c-10.1,0-18.2-8.2-18.2-18.2V72.2C70.9,62.2,79,54,89.1,54
			h135.2C234.3,54,242.5,62.2,242.5,72.2z"/>
		<path class="st3" d="M263.5-26.7H11.1v13.8h241.1c19.3,0,35.1,15.7,35.1,35.1v762.1c0,5.2-1.1,10.1-3.1,14.5
			c8.7-6.4,14.4-16.7,14.4-28.3V8.4C298.5-11,282.8-26.7,263.5-26.7z M89.1,488.1c-17.8,0-32.2-14.4-32.2-32.2V72.2
			c0-4.5,0.9-8.8,2.6-12.6C51.1,65.4,45.6,75.1,45.6,86v383.7c0,17.8,14.4,32.2,32.2,32.2H213c13.3,0,24.7-8.1,29.7-19.6
			c-5.2,3.6-11.6,5.8-18.4,5.8H89.1z M89.1,749.4c-17.8,0-32.2-14.4-32.2-32.2V565c0-4.5,0.9-8.8,2.6-12.6
			c-8.4,5.8-13.8,15.5-13.8,26.5V731c0,17.8,14.4,32.2,32.2,32.2H213c13.3,0,24.7-8.1,29.7-19.6c-5.2,3.6-11.6,5.8-18.4,5.8H89.1z"
			/>
		<path class="st5" d="M256.5,455.9c0,17.8-14.4,32.2-32.2,32.2H89.1c-17.8,0-32.2-14.4-32.2-32.2V72.2C56.9,54.4,71.3,40,89.1,40
			h135.2c17.8,0,32.2,14.4,32.2,32.2V455.9z"/>
		<path class="st6" d="M242.5,72.2c0-10.1-8.2-18.2-18.2-18.2H89.1C79,54,70.9,62.2,70.9,72.2v383.7c0,10.1,8.2,18.2,18.2,18.2
			h135.2c10.1,0,18.2-8.2,18.2-18.2V72.2z"/>
		<path class="st5" d="M256.5,717.2c0,17.8-14.4,32.2-32.2,32.2H89.1c-17.8,0-32.2-14.4-32.2-32.2V565c0-17.8,14.4-32.2,32.2-32.2
			h135.2c17.8,0,32.2,14.4,32.2,32.2V717.2z"/>
		<path class="st6" d="M242.5,565c0-10.1-8.2-18.2-18.2-18.2H89.1c-10.1,0-18.2,8.2-18.2,18.2v152.2c0,10.1,8.2,18.2,18.2,18.2
			h135.2c10.1,0,18.2-8.2,18.2-18.2V565z"/>
		<path class="st7" d="M298.5,770.4V8.4c0-19.3-15.7-35.1-35.1-35.1H11.1v832.2h252.3C282.8,805.5,298.5,789.7,298.5,770.4z"/>
		<path class="st4" d="M-2.9,819.5V-40.7h266.3c27.1,0,49.1,22,49.1,49.1v762.1c0,27.1-22,49-49.1,49"/>
		<line class="st8" x1="99.2" y1="354.7" x2="162.5" y2="217.7"/>
		<line class="st8" x1="150.9" y1="354.7" x2="214.2" y2="217.7"/>
		<g>
			<g>
				<line class="st9" x1="131.2" y1="341.7" x2="139.6" y2="323.6"/>
				<line class="st10" x1="142.1" y1="318.2" x2="148.2" y2="304.9"/>
				<line class="st11" x1="151.9" y1="296.9" x2="170.4" y2="256.9"/>
				<line class="st9" x1="174.1" y1="248.9" x2="182.5" y2="230.7"/>
			</g>
		</g>
		<line class="st8" x1="99.2" y1="709.6" x2="162.5" y2="572.6"/>
		<line class="st8" x1="150.9" y1="709.6" x2="214.2" y2="572.6"/>
		<g>
			<g>
				<line class="st9" x1="131.2" y1="696.6" x2="139.6" y2="678.4"/>
				<line class="st10" x1="142.1" y1="673.1" x2="148.2" y2="659.7"/>
				<line class="st11" x1="151.9" y1="651.7" x2="170.4" y2="611.7"/>
				<line class="st9" x1="174.1" y1="603.7" x2="182.5" y2="585.6"/>
			</g>
		</g>
		<path class="st0" d="M312.5,8.4v762.1c0,27.1-22,49-49.1,49H-2.9V-40.7h266.3C290.6-40.7,312.5-18.7,312.5,8.4z M298.5,770.4V8.4
			c0-19.3-15.7-35.1-35.1-35.1H11.1v832.2h252.3C282.8,805.5,298.5,789.7,298.5,770.4z"/>
		<path class="st1" d="M298.5,8.4v762.1c0,19.3-15.7,35-35.1,35H11.1V-26.7h252.3C282.8-26.7,298.5-11,298.5,8.4z M256.5,717.2V565
			c0-17.8-14.4-32.2-32.2-32.2H89.1c-17.8,0-32.2,14.4-32.2,32.2v152.2c0,17.8,14.4,32.2,32.2,32.2h135.2
			C242.1,749.4,256.5,735,256.5,717.2z M256.5,455.9V72.2c0-17.8-14.4-32.2-32.2-32.2H89.1c-17.8,0-32.2,14.4-32.2,32.2v383.7
			c0,17.8,14.4,32.2,32.2,32.2h135.2C242.1,488.1,256.5,473.7,256.5,455.9z"/>
		<path class="st2" d="M256.5,565v152.2c0,17.8-14.4,32.2-32.2,32.2H89.1c-17.8,0-32.2-14.4-32.2-32.2V565
			c0-17.8,14.4-32.2,32.2-32.2h135.2C242.1,532.7,256.5,547.2,256.5,565z M242.5,717.2V565c0-10.1-8.2-18.2-18.2-18.2H89.1
			c-10.1,0-18.2,8.2-18.2,18.2v152.2c0,10.1,8.2,18.2,18.2,18.2h135.2C234.3,735.4,242.5,727.2,242.5,717.2z"/>
		<path class="st2" d="M256.5,72.2v383.7c0,17.8-14.4,32.2-32.2,32.2H89.1c-17.8,0-32.2-14.4-32.2-32.2V72.2
			C56.9,54.4,71.3,40,89.1,40h135.2C242.1,40,256.5,54.4,256.5,72.2z M242.5,455.9V72.2c0-10.1-8.2-18.2-18.2-18.2H89.1
			C79,54,70.9,62.2,70.9,72.2v383.7c0,10.1,8.2,18.2,18.2,18.2h135.2C234.3,474.1,242.5,466,242.5,455.9z"/>
		<path class="st0" d="M242.5,565v152.2c0,10.1-8.2,18.2-18.2,18.2H89.1c-10.1,0-18.2-8.2-18.2-18.2V565c0-10.1,8.2-18.2,18.2-18.2
			h135.2C234.3,546.7,242.5,554.9,242.5,565z"/>
		<path class="st0" d="M242.5,72.2v383.7c0,10.1-8.2,18.2-18.2,18.2H89.1c-10.1,0-18.2-8.2-18.2-18.2V72.2C70.9,62.2,79,54,89.1,54
			h135.2C234.3,54,242.5,62.2,242.5,72.2z"/>
		<path class="st3" d="M263.5-26.7H11.1v13.8h241.1c19.3,0,35.1,15.7,35.1,35.1v762.1c0,5.2-1.1,10.1-3.1,14.5
			c8.7-6.4,14.4-16.7,14.4-28.3V8.4C298.5-11,282.8-26.7,263.5-26.7z M89.1,488.1c-17.8,0-32.2-14.4-32.2-32.2V72.2
			c0-4.5,0.9-8.8,2.6-12.6C51.1,65.4,45.6,75.1,45.6,86v383.7c0,17.8,14.4,32.2,32.2,32.2H213c13.3,0,24.7-8.1,29.7-19.6
			c-5.2,3.6-11.6,5.8-18.4,5.8H89.1z M89.1,749.4c-17.8,0-32.2-14.4-32.2-32.2V565c0-4.5,0.9-8.8,2.6-12.6
			c-8.4,5.8-13.8,15.5-13.8,26.5V731c0,17.8,14.4,32.2,32.2,32.2H213c13.3,0,24.7-8.1,29.7-19.6c-5.2,3.6-11.6,5.8-18.4,5.8H89.1z"
			/>
		<path class="st5" d="M256.5,455.9c0,17.8-14.4,32.2-32.2,32.2H89.1c-17.8,0-32.2-14.4-32.2-32.2V72.2C56.9,54.4,71.3,40,89.1,40
			h135.2c17.8,0,32.2,14.4,32.2,32.2V455.9z"/>
		<path class="st6" d="M242.5,72.2c0-10.1-8.2-18.2-18.2-18.2H89.1C79,54,70.9,62.2,70.9,72.2v383.7c0,10.1,8.2,18.2,18.2,18.2
			h135.2c10.1,0,18.2-8.2,18.2-18.2V72.2z"/>
		<path class="st5" d="M256.5,717.2c0,17.8-14.4,32.2-32.2,32.2H89.1c-17.8,0-32.2-14.4-32.2-32.2V565c0-17.8,14.4-32.2,32.2-32.2
			h135.2c17.8,0,32.2,14.4,32.2,32.2V717.2z"/>
		<path class="st6" d="M242.5,565c0-10.1-8.2-18.2-18.2-18.2H89.1c-10.1,0-18.2,8.2-18.2,18.2v152.2c0,10.1,8.2,18.2,18.2,18.2
			h135.2c10.1,0,18.2-8.2,18.2-18.2V565z"/>
		<path class="st7" d="M298.5,770.4V8.4c0-19.3-15.7-35.1-35.1-35.1H11.1v832.2h252.3C282.8,805.5,298.5,789.7,298.5,770.4z"/>
		<path class="st4" d="M-2.9,819.5V-40.7h266.3c27.1,0,49.1,22,49.1,49.1v762.1c0,27.1-22,49-49.1,49"/>
		<line class="st8" x1="99.2" y1="354.7" x2="162.5" y2="217.7"/>
		<line class="st8" x1="150.9" y1="354.7" x2="214.2" y2="217.7"/>
		<g>
			<g>
				<line class="st9" x1="131.2" y1="341.7" x2="139.6" y2="323.6"/>
				<line class="st10" x1="142.1" y1="318.2" x2="148.2" y2="304.9"/>
				<line class="st11" x1="151.9" y1="296.9" x2="170.4" y2="256.9"/>
				<line class="st9" x1="174.1" y1="248.9" x2="182.5" y2="230.7"/>
			</g>
		</g>
		<line class="st8" x1="99.2" y1="709.6" x2="162.5" y2="572.6"/>
		<line class="st8" x1="150.9" y1="709.6" x2="214.2" y2="572.6"/>
		<g>
			<g>
				<line class="st9" x1="131.2" y1="696.6" x2="139.6" y2="678.4"/>
				<line class="st10" x1="142.1" y1="673.1" x2="148.2" y2="659.7"/>
				<line class="st11" x1="151.9" y1="651.7" x2="170.4" y2="611.7"/>
				<line class="st9" x1="174.1" y1="603.7" x2="182.5" y2="585.6"/>
			</g>
		</g>
	</g>
</g>
<g id="Vagon">
	<path class="st12" d="M-330.3,3.5v699.2h-782.9V-75.8h2220.5v778.5H324.5V3.5c0-31.1-25.2-56.2-56.2-56.2H-274
		C-305.1-52.7-330.3-27.5-330.3,3.5z M532.6,374.3c0,33.6,27.2,60.8,60.8,60.8h407.3c33.6,0,60.8-27.2,60.8-60.8V83.8
		c0-33.6-27.2-60.8-60.8-60.8H593.4c-33.6,0-60.8,27.2-60.8,60.8V374.3z M-1067.2,374.3c0,33.6,27.2,60.8,60.8,60.8h407.3
		c33.6,0,60.8-27.2,60.8-60.8V83.8c0-33.6-27.2-60.8-60.8-60.8h-407.3c-33.6,0-60.8,27.2-60.8,60.8
		C-1067.2,83.8-1067.2,374.3-1067.2,374.3z"/>
	<path class="st13" d="M-330.3,775.2c0,29.5,22.7,53.7,51.6,56.1V845H273v-13.7c28.9-2.4,51.6-26.6,51.6-56.1v-72.5h782.9V888
		h-2220.5V702.7h782.9V775.2z"/>
	<polygon class="st16" points="-1113.1,-75.8 -1113.1,702.7 -1113.1,888 1107.4,888 1107.4,702.7 1107.4,-75.8 1107.4,-192 
		-1113.1,-192 	"/>
	<path class="st12" d="M-330.3,3.5v699.2h-782.9V-75.8h2220.5v778.5H324.5V3.5c0-31.1-25.2-56.2-56.2-56.2H-274
		C-305.1-52.7-330.3-27.5-330.3,3.5z M532.6,374.3c0,33.6,27.2,60.8,60.8,60.8h407.3c33.6,0,60.8-27.2,60.8-60.8V83.8
		c0-33.6-27.2-60.8-60.8-60.8H593.4c-33.6,0-60.8,27.2-60.8,60.8V374.3z M-1067.2,374.3c0,33.6,27.2,60.8,60.8,60.8h407.3
		c33.6,0,60.8-27.2,60.8-60.8V83.8c0-33.6-27.2-60.8-60.8-60.8h-407.3c-33.6,0-60.8,27.2-60.8,60.8
		C-1067.2,83.8-1067.2,374.3-1067.2,374.3z"/>
	<path class="st13" d="M-330.3,775.2c0,29.5,22.7,53.7,51.6,56.1V845H273v-13.7c28.9-2.4,51.6-26.6,51.6-56.1v-72.5h782.9V888
		h-2220.5V702.7h782.9V775.2z"/>
	<polygon class="st16" points="-1113.1,-75.8 -1113.1,702.7 -1113.1,888 1107.4,888 1107.4,702.7 1107.4,-75.8 1107.4,-192 
		-1113.1,-192 	"/>
	<path class="st0" d="M-318.3,770.4c0,27.1,22,49,49.1,49H-2.9h266.3c27.1,0,49.1-22,49.1-49V8.4c0-27.1-22-49.1-49.1-49.1H-2.9
		h-266.3c-27.1,0-49.1,22-49.1,49.1V770.4z M324.5,3.5v699.2v72.5c0,29.5-22.7,53.7-51.6,56.1V845h-551.7v-13.7
		c-28.9-2.4-51.6-26.6-51.6-56.1v-72.5V3.5c0-31.1,25.2-56.2,56.2-56.2h542.3C299.3-52.7,324.5-27.5,324.5,3.5z"/>
	<path class="st0" d="M-318.3,770.4c0,27.1,22,49,49.1,49H-2.9h266.3c27.1,0,49.1-22,49.1-49V8.4c0-27.1-22-49.1-49.1-49.1H-2.9
		h-266.3c-27.1,0-49.1,22-49.1,49.1V770.4z M324.5,3.5v699.2v72.5c0,29.5-22.7,53.7-51.6,56.1V845h-551.7v-13.7
		c-28.9-2.4-51.6-26.6-51.6-56.1v-72.5V3.5c0-31.1,25.2-56.2,56.2-56.2h542.3C299.3-52.7,324.5-27.5,324.5,3.5z"/>
</g>
</svg>
